<svg width="36" height="36" viewBox="0 0 36 36" fill="none" xmlns="http://www.w3.org/2000/svg">
<g clip-path="url(#clip0_35_31)">
<path d="M10.5001 27C8.62847 27 6.83354 26.2888 5.51013 25.023C4.18672 23.7571 3.44324 22.0402 3.44324 20.25C3.44324 18.4598 4.18672 16.7429 5.51013 15.477C6.83354 14.2111 8.62847 13.5 10.5001 13.5C10.9421 11.5308 12.2352 9.80021 14.0949 8.68906C15.0158 8.13887 16.048 7.75731 17.1327 7.56616C18.2174 7.375 19.3333 7.37801 20.4167 7.57499C21.5001 7.77197 22.5298 8.15908 23.447 8.71421C24.3642 9.26934 25.1509 9.98162 25.7622 10.8104C26.3735 11.6391 26.7975 12.5682 27.0099 13.5444C27.2223 14.5206 27.2189 15.5249 27.0001 16.5H28.5001C29.8924 16.5 31.2278 17.0531 32.2124 18.0377C33.1969 19.0222 33.7501 20.3576 33.7501 21.75C33.7501 23.1424 33.1969 24.4777 32.2124 25.4623C31.2278 26.4469 29.8924 27 28.5001 27H27.0001" stroke="#FF4000" stroke-opacity="0.75" stroke-width="2" stroke-linecap="round" stroke-linejoin="round"/>
<path d="M13.5 22.5L18 18L22.5 22.5" stroke="#FF4000" stroke-opacity="0.75" stroke-width="2" stroke-linecap="round" stroke-linejoin="round"/>
<path d="M18 18V31.5" stroke="#FF4000" stroke-opacity="0.75" stroke-width="2" stroke-linecap="round" stroke-linejoin="round"/>
</g>
<defs>
<clipPath id="clip0_35_31">
<rect width="36" height="36" fill="white"/>
</clipPath>
</defs>
</svg>
