<svg width="478" height="478" viewBox="0 0 478 478" fill="none" xmlns="http://www.w3.org/2000/svg">
<path d="M82.4836 427.906C-3.94832 378.002 -3.94832 297.087 82.4836 247.222C168.916 197.357 309.056 197.318 395.516 247.222C481.977 297.125 481.948 378.041 395.516 427.906C309.084 477.771 168.925 477.818 82.4836 427.906Z" fill="#F5F5F5"/>
<path d="M151.66 430.315C189.168 430.315 219.574 412.762 219.574 391.109C219.574 369.456 189.168 351.904 151.66 351.904C114.152 351.904 83.7456 369.456 83.7456 391.109C83.7456 412.762 114.152 430.315 151.66 430.315Z" fill="#E0E0E0"/>
<path d="M308.629 372.785C355.722 347.386 383.652 307.798 371.013 284.363C358.373 260.928 309.95 262.52 262.857 287.92C215.764 313.319 187.834 352.907 200.474 376.342C213.113 399.777 261.536 398.185 308.629 372.785Z" fill="#E0E0E0"/>
<path d="M355.489 317.115C364.905 305.891 379.656 298.578 396.243 294.257C412.629 290.003 415.564 279.917 404.704 276.657C392.4 272.948 377.047 279.754 367.142 289.228C349.896 305.738 347.726 318.348 347.726 318.348L355.489 317.115Z" fill="#FF4000"/>
<path opacity="0.15" d="M355.489 317.115C364.905 305.891 379.656 298.578 396.243 294.257C412.629 290.003 415.564 279.917 404.704 276.657C392.4 272.948 377.047 279.754 367.142 289.228C349.896 305.738 347.726 318.348 347.726 318.348L355.489 317.115Z" fill="black"/>
<path d="M350.642 316.436C350.572 316.45 350.501 316.45 350.431 316.436C350.375 316.408 350.324 316.37 350.283 316.323C350.241 316.276 350.209 316.221 350.188 316.161C350.168 316.102 350.16 316.039 350.164 315.976C350.168 315.913 350.184 315.852 350.212 315.795C364.188 287.115 395.144 280.06 402.639 280.596C402.764 280.605 402.88 280.664 402.962 280.759C403.045 280.854 403.086 280.977 403.078 281.102C403.066 281.228 403.006 281.344 402.909 281.427C402.813 281.509 402.688 281.55 402.562 281.542C395.22 280.987 364.829 287.976 351.072 316.216C351.025 316.286 350.961 316.343 350.885 316.382C350.81 316.42 350.726 316.439 350.642 316.436Z" fill="white"/>
<path d="M347.726 320.097C347.727 320.559 347.849 321.011 348.082 321.41C348.314 321.808 348.648 322.137 349.049 322.365C349.451 322.592 349.905 322.709 350.366 322.704C350.827 322.698 351.278 322.571 351.674 322.335C360.431 317.239 373.203 314.419 393.872 320.308C404.866 323.434 410.277 321.34 412.591 316.866C415.172 311.895 409.723 307.086 403.509 304.821C382.352 297.087 363.261 302.364 347.726 317.794V320.097Z" fill="#FF4000"/>
<path d="M348.94 320.509C348.872 320.51 348.805 320.497 348.742 320.47C348.68 320.444 348.624 320.405 348.577 320.356C348.489 320.265 348.439 320.143 348.439 320.016C348.439 319.89 348.489 319.768 348.577 319.677C366.846 303.348 395.144 306.532 405.851 312.899C405.959 312.963 406.038 313.067 406.071 313.188C406.103 313.31 406.086 313.44 406.023 313.549C405.957 313.658 405.852 313.737 405.728 313.769C405.605 313.802 405.474 313.784 405.363 313.721C394.847 307.478 367.123 304.371 349.217 320.413C349.136 320.471 349.04 320.504 348.94 320.509Z" fill="white"/>
<path d="M143.324 358.165C135.293 345.909 121.508 336.904 105.543 330.661C89.7877 324.505 88.0573 314.151 99.2234 312.182C111.881 309.954 126.326 318.53 135.045 329.103C150.226 347.535 150.886 360.335 150.886 360.335L143.324 358.165Z" fill="#FF4000"/>
<path opacity="0.15" d="M143.324 358.165C135.293 345.909 121.508 336.904 105.543 330.661C89.7877 324.505 88.0573 314.151 99.2234 312.182C111.881 309.954 126.326 318.53 135.045 329.103C150.226 347.535 150.886 360.335 150.886 360.335L143.324 358.165Z" fill="black"/>
<path d="M148.18 358.089C148.25 358.103 148.321 358.103 148.391 358.089C148.51 358.046 148.608 357.957 148.663 357.843C148.718 357.729 148.727 357.598 148.687 357.477C138.171 327.354 108.305 316.694 100.772 316.369C100.647 316.364 100.525 316.408 100.432 316.492C100.339 316.576 100.282 316.693 100.275 316.818C100.272 316.946 100.318 317.069 100.404 317.163C100.489 317.257 100.607 317.315 100.734 317.325C108.095 317.631 137.444 328.157 147.779 357.821C147.816 357.897 147.873 357.962 147.943 358.009C148.014 358.056 148.096 358.084 148.18 358.089Z" fill="white"/>
<path d="M150.953 359.752C150.878 360.432 150.629 361.08 150.23 361.636C149.832 362.191 149.297 362.634 148.677 362.922C148.057 363.21 147.374 363.334 146.692 363.281C146.011 363.228 145.354 363.001 144.786 362.62C136.68 357.19 124.605 353.663 104.826 356.884C93.5448 358.691 88.4207 355.928 86.6616 351.254C84.6923 346.015 90.6768 341.894 97.1107 340.374C119.032 335.193 137.368 342.688 150.972 359.829L150.953 359.752Z" fill="#FF4000"/>
<path d="M149.442 362.324C149.509 362.333 149.577 362.328 149.641 362.308C149.706 362.288 149.765 362.255 149.815 362.209C149.903 362.118 149.953 361.997 149.953 361.87C149.953 361.743 149.903 361.621 149.815 361.531C133.563 343.166 105.122 342.984 93.7362 348.041C93.6195 348.093 93.5283 348.189 93.4826 348.309C93.4369 348.428 93.4404 348.56 93.4924 348.677C93.5444 348.794 93.6405 348.885 93.7598 348.931C93.879 348.976 94.0115 348.973 94.1281 348.921C105.285 343.959 133.2 344.141 149.098 362.161C149.14 362.213 149.192 362.254 149.252 362.282C149.311 362.31 149.376 362.324 149.442 362.324Z" fill="white"/>
<path d="M364.064 139.739L363.911 139.662L327.468 118.687L327.248 118.582C310.222 109.978 287.507 112.569 263.072 128.362C213.991 160.101 176.592 233.159 179.537 291.542C180.999 320.633 192.223 340.585 209.173 349.361L209.316 349.437L245.768 370.421L245.94 370.517C262.967 379.121 285.7 376.568 310.155 360.756C359.236 329.017 396.635 255.959 393.69 197.577C392.247 168.466 381.023 148.515 364.064 139.739Z" fill="#37474F"/>
<path d="M244.516 369.743L209.364 349.418L209.192 349.313C192.242 340.518 181.028 320.566 179.556 291.513C178.246 265.472 184.967 236.534 197.146 209.66L197.385 209.068L233.598 230.635C221.4 257.508 214.698 286.446 216.008 312.488C217.394 340.967 228.168 360.68 244.516 369.743Z" fill="#263238"/>
<path d="M310.174 360.737C359.255 328.998 396.654 255.94 393.709 197.557C390.765 139.175 348.586 117.588 299.505 149.327C250.424 181.066 213.016 254.124 215.96 312.497C218.905 370.871 261.093 392.476 310.174 360.737Z" fill="#455A64"/>
<path d="M351.741 135.207L290.222 261.944L276.982 247.604C273.034 243.494 267.631 241.095 261.934 240.925C256.238 240.754 250.701 242.824 246.514 246.691C242.327 250.557 239.823 255.912 239.541 261.604C239.259 267.297 241.22 272.873 245.004 277.135L279.888 314.926C283.724 319.093 289.04 321.591 294.697 321.885C295.098 321.885 295.5 321.885 295.901 321.885C296.957 321.884 298.011 321.808 299.056 321.656C302.567 321.145 305.9 319.781 308.763 317.685C311.626 315.588 313.932 312.823 315.48 309.629L386.033 164.317C378.796 148.18 366.75 138.18 351.741 135.207Z" fill="#37474F"/>
<path d="M401.702 93.4681C401.319 93.2483 400.918 93.0379 400.516 92.8467C396.007 90.6618 390.816 90.3547 386.081 91.9928C381.345 93.6309 377.453 97.0805 375.259 101.585L296.981 262.824L292.526 258.044C291.24 256.639 289.744 255.442 288.091 254.497C285.758 253.158 275.835 247.413 274.229 246.485C270.314 244.221 265.717 243.435 261.272 244.27C256.827 245.106 252.829 247.508 250.004 251.039C247.179 254.571 245.715 258.999 245.876 263.519C246.037 268.038 247.814 272.351 250.883 275.672L285.767 313.453C287.075 314.872 288.594 316.082 290.27 317.038C292.545 318.329 302.43 324.065 304.056 325.002C306.304 326.303 308.796 327.128 311.377 327.423C313.957 327.719 316.571 327.479 319.055 326.72C321.539 325.96 323.84 324.696 325.814 323.007C327.788 321.318 329.392 319.241 330.527 316.904L423.135 126.154C425.217 121.855 425.597 116.927 424.198 112.36C422.799 107.792 419.725 103.923 415.592 101.527L401.702 93.4681Z" fill="#FF4000"/>
<path opacity="0.15" d="M401.702 93.4681C401.319 93.2483 400.918 93.0379 400.516 92.8467C396.007 90.6618 390.816 90.3547 386.081 91.9928C381.345 93.6309 377.453 97.0805 375.259 101.585L296.981 262.824L292.526 258.044C291.24 256.639 289.744 255.442 288.091 254.497C285.758 253.158 275.835 247.413 274.229 246.485C270.314 244.221 265.717 243.435 261.272 244.27C256.827 245.106 252.829 247.508 250.004 251.039C247.179 254.571 245.715 258.999 245.876 263.519C246.037 268.038 247.814 272.351 250.883 275.672L285.767 313.453C287.075 314.872 288.594 316.082 290.27 317.038C292.545 318.329 302.43 324.065 304.056 325.002C306.304 326.303 308.796 327.128 311.377 327.423C313.957 327.719 316.571 327.479 319.055 326.72C321.539 325.96 323.84 324.696 325.814 323.007C327.788 321.318 329.392 319.241 330.527 316.904L423.135 126.154C425.217 121.855 425.597 116.927 424.198 112.36C422.799 107.792 419.725 103.923 415.592 101.527L401.702 93.4681Z" fill="black"/>
<path opacity="0.15" d="M304.008 324.964C302.402 324.008 292.536 318.272 290.232 317C288.556 316.043 287.038 314.834 285.729 313.415L250.845 275.634C249.307 273.956 248.086 272.012 247.241 269.898L261.112 277.9C261.953 280.02 263.182 281.965 264.736 283.636L299.61 321.417C300.894 322.809 302.375 324.004 304.008 324.964Z" fill="black"/>
<path opacity="0.15" d="M393.518 103.783C391.696 105.419 390.209 107.393 389.14 109.596L308.626 275.443L296.981 262.824L375.259 101.585C376.325 99.3777 377.817 97.4026 379.647 95.7721L393.518 103.783Z" fill="black"/>
<path d="M414.397 100.858C409.887 98.6783 404.698 98.3739 399.964 100.012C395.23 101.649 391.338 105.095 389.14 109.596L308.625 275.443L292.536 258.005C289.093 254.508 284.423 252.487 279.517 252.372C274.61 252.257 269.851 254.056 266.247 257.389C262.644 260.721 260.479 265.325 260.211 270.226C259.943 275.127 261.593 279.94 264.812 283.645L299.687 321.436C301.774 323.694 304.382 325.409 307.283 326.432C310.183 327.454 313.29 327.753 316.333 327.303C319.375 326.853 322.262 325.667 324.742 323.848C327.222 322.029 329.221 319.633 330.566 316.866L423.173 126.116C425.355 121.602 425.657 116.407 424.011 111.671C422.366 106.935 418.908 103.046 414.397 100.858Z" fill="#FF4000"/>
<path d="M150.312 119.5C143.018 119.5 138.027 121.412 132.846 128.773C128.066 135.542 115.026 158.103 115.026 158.103C115.026 158.103 105.466 138.486 104.51 134.576C103.554 130.666 103.611 128.926 104.51 127.225C105.826 125.213 106.651 122.921 106.919 120.533C107.292 115.829 108.439 111.804 107.388 111.67C104.472 111.508 104.357 115.255 102.827 117.464C102.633 117.677 102.391 117.841 102.122 117.944C101.852 118.046 101.562 118.083 101.275 118.052C100.988 118.022 100.713 117.924 100.471 117.767C100.229 117.61 100.028 117.398 99.8829 117.148C99.2424 115.839 99.5865 113.688 99.2806 112.139C99.3635 111.277 99.5008 110.421 99.6917 109.577C100.796 109.775 101.924 109.808 103.038 109.672C104.3 111.651 105.16 112.483 106.919 111.68C107.149 111.317 106.164 108.812 105.007 106.9C104.833 106.607 104.552 106.395 104.223 106.307C102.102 105.77 99.889 105.708 97.7415 106.126C97.5791 106.142 97.4218 106.191 97.2789 106.27C97.136 106.349 97.0104 106.456 96.9097 106.584C96.1026 107.767 95.4595 109.053 94.9977 110.408C94.8735 110.82 94.4911 110.81 94.3955 110.456C93.4395 105.839 93.4395 99.2806 93.4395 96.2119C93.4395 93.7932 89.9118 93.4108 89.7875 96.8715C89.5779 101.515 89.6578 106.167 90.0265 110.8C90.0265 111.221 89.6059 111.422 89.4338 110.963C88.822 109.328 87.3211 104.386 86.6901 95.8581C86.518 93.5637 82.8087 93.1909 82.8661 96.4126C83.0114 102.125 83.7548 107.806 85.084 113.363C85.1987 113.764 84.8259 114.118 84.5487 113.659C82.8084 110.305 81.418 106.781 80.3996 103.143C79.6061 100.37 75.9064 101.078 76.5756 104.529C77.7324 110.714 79.5679 118.534 82.3116 124.127C85.237 130.102 87.7608 133.094 89.2139 137.788C90.6671 142.482 96.6803 169.069 103.114 179.432C108.152 187.558 113.917 186.802 120.121 182.52C126.326 178.237 148.496 147.348 148.496 147.348L150.312 119.5Z" fill="#9E6767"/>
<path d="M115.026 158.094C115.026 158.094 118.133 163.361 118.611 167.577C119.401 163.484 118.615 159.243 116.412 155.704L115.026 158.094Z" fill="#874C4C"/>
<path d="M151.86 119.5C148.151 119.118 143.534 118.993 138.39 122.234C133.247 125.475 131.45 129.987 128.955 133.936C126.46 137.884 117.836 151.87 117.836 151.87C117.836 151.87 121.001 165.149 133.582 167.883L152.425 142.32L151.86 119.5Z" fill="#455A64"/>
<path d="M168.753 352.984C169.709 352.86 170.981 356.12 171 357.181C171.019 358.242 169.948 360.527 168.543 362.668C166.665 365.217 165.107 367.988 163.906 370.918C162.826 373.863 161.832 375.794 158.821 379.647C155.475 383.939 147.616 391.119 135.685 388.002C132.77 387.237 131.316 386.32 130.255 385.258C129.79 384.788 129.465 384.197 129.318 383.551C129.171 382.906 129.208 382.232 129.424 381.607L168.753 352.984Z" fill="#263238"/>
<path d="M145.312 349.256V349.361C145.175 350.253 145.201 351.164 145.388 352.047C145.716 354.68 145.483 357.352 144.704 359.888C143.924 362.424 142.616 364.766 140.867 366.76C139.205 368.495 137.328 370.011 135.283 371.272C129.242 375.096 128.591 377.706 129.442 381.607C131.469 386.148 145.169 388.91 153.046 382.151C156.445 379.513 159.043 375.981 160.551 371.951C161.694 369.064 163.022 366.254 164.528 363.538C166.048 360.67 168.935 357.439 169.021 354.485C169.069 352.86 167.462 349.839 165.904 347.353C164.47 345.068 162.988 342.898 161.698 343.147L162.061 344.437C160.981 345.556 159.422 345.976 158.486 347.305C157.319 348.921 157.358 351.129 156.641 352.946C156.617 353.039 156.573 353.126 156.512 353.201C156.451 353.275 156.374 353.335 156.287 353.376C156.186 353.393 156.082 353.377 155.991 353.33C155.9 353.284 155.826 353.209 155.78 353.118C155.702 352.93 155.666 352.728 155.675 352.525L155.589 349.743C155.632 349.208 155.49 348.675 155.187 348.233C154.442 347.391 152.606 347.487 151.583 347.449C150.206 347.459 148.831 347.542 147.463 347.697C146.989 347.65 146.514 347.776 146.125 348.051C145.734 348.357 145.449 348.779 145.312 349.256Z" fill="#37474F"/>
<path d="M125.064 293.674C128.247 304.142 143.132 340.384 144.021 342.563L146.985 349.753C148.937 350.394 151.028 350.484 153.027 350.011C153.342 353.481 153.868 358.921 154.069 361.664C154.146 364.848 154.423 368.787 153.734 371.932C153.151 374.609 152.473 377.419 151.966 380.106C151.746 381.291 151.526 382.486 151.344 383.681C151.036 384.933 151.14 386.25 151.641 387.438C151.946 387.957 152.348 388.411 152.826 388.777C154.95 390.445 157.633 391.232 160.321 390.975C161.743 390.907 163.118 390.451 164.298 389.656C166.612 388.002 167.424 385.125 168.6 382.677C169.881 380.029 169.47 379.733 169.556 376.893C169.633 374.905 170.187 369.857 170.981 364.58C171.774 359.303 175.197 340.757 176.841 322.277C177.511 314.069 177.511 305.82 176.841 297.612C189.9 262.135 195.712 241.036 197.424 229.258C199.154 217.289 198.322 213.006 198.102 206.133L134.595 207.662C129.509 240.491 120.791 279.64 125.064 293.674Z" fill="#9E6767"/>
<path d="M124.07 267.479C125.379 255.415 134.404 209.039 134.404 209.039H198.38C198.38 209.039 198.791 217.939 198.676 222.031C198.561 226.123 197.242 233.589 194.957 243.063C192.672 252.537 184.202 279.276 182.529 283.215C180.856 287.154 177.749 298.578 177.749 298.578C179.317 320.031 175.235 339.284 172.176 364.877C172.176 364.877 171.287 368.328 162.224 367.649C153.409 366.98 151.631 363.729 151.631 363.729L151.048 341.655C151.048 341.655 146.268 343.128 143.4 342.458C143.4 342.458 124.462 295.7 123.544 292.89C122.626 290.079 122.76 279.544 124.07 267.479Z" fill="#FF4000"/>
<path opacity="0.45" d="M124.07 267.479C125.379 255.415 134.404 209.039 134.404 209.039H198.38C198.38 209.039 198.791 217.939 198.676 222.031C198.561 226.123 197.242 233.589 194.957 243.063C192.672 252.537 184.202 279.276 182.529 283.215C180.856 287.154 177.749 298.578 177.749 298.578C179.317 320.031 175.235 339.284 172.176 364.877C172.176 364.877 171.287 368.328 162.224 367.649C153.409 366.98 151.631 363.729 151.631 363.729L151.048 341.655C151.048 341.655 146.268 343.128 143.4 342.458C143.4 342.458 124.462 295.7 123.544 292.89C122.626 290.079 122.76 279.544 124.07 267.479Z" fill="black"/>
<path opacity="0.2" d="M151.21 239.268C142.148 231.103 140.13 224.603 140.13 224.603C144.687 229.736 150.082 234.058 156.086 237.384C156.086 237.384 147.482 282.814 148.113 292.154C148.744 301.494 151.048 341.655 151.048 341.655C151.048 342.038 144.949 299.18 144.767 295.767C144.356 286.733 151.21 239.268 151.21 239.268Z" fill="black"/>
<path d="M171.124 387.62C172.013 387.878 171.898 390.536 171.497 391.53C170.502 393.265 169.093 394.726 167.396 395.784C164.908 397.478 162.834 399.709 161.325 402.313C158.87 406.068 155.624 409.24 151.813 411.606C146.737 414.486 140.754 415.323 135.083 413.948C129.079 412.246 128.525 410.774 128.572 408.508L171.124 387.62Z" fill="#263238"/>
<path d="M152.578 373.72C151 381.368 148.256 386.989 141.899 391.711C136.832 395.478 133.161 397.39 129.117 400.746C127.406 402.18 127.263 405.229 128.572 408.518C131.307 410.707 135.188 411.969 140.398 411.96C146.23 411.96 148.467 410.917 151.813 408.633C153.456 407.509 154.987 406.228 156.382 404.809C159.184 401.998 161.162 398.528 163.151 396.3C165.139 394.073 169.547 391.797 170.799 389.111C171.487 387.639 171.2 384.226 170.742 381.32C170.321 378.652 171.134 373.968 169.852 373.672L169.671 375.584C169.566 376.014 169.298 376.234 168.399 376.54C167.592 376.715 166.758 376.738 165.942 376.607C165.652 376.502 165.337 376.49 165.04 376.574C164.743 376.658 164.48 376.834 164.289 377.075C163.428 378.088 163.199 379.522 162.09 380.364C162.018 380.427 161.933 380.472 161.841 380.498C161.799 380.521 161.75 380.533 161.701 380.531C161.652 380.53 161.605 380.515 161.564 380.488C161.534 380.442 161.515 380.39 161.506 380.335C161.498 380.281 161.502 380.226 161.516 380.173L161.832 377.305C161.87 377.019 161.87 376.73 161.832 376.444C161.772 376.178 161.655 375.927 161.49 375.71C161.325 375.492 161.116 375.312 160.876 375.182C160.07 374.714 159.205 374.357 158.304 374.121C157.366 373.866 156.405 373.703 155.436 373.633C154.485 373.511 153.52 373.541 152.578 373.72Z" fill="#455A64"/>
<path d="M192.605 122.244C192.605 122.244 195.234 125.857 197.385 133.305C200.003 145.535 201.349 158.004 201.4 170.512C201.4 187.405 199.125 214.775 199.125 214.775C179.517 224.603 147.893 218.79 133.974 209.201C134.538 206.161 135.016 190.177 136.115 179.632C136.851 161.545 137.463 152.071 137.587 144.021C137.845 127.941 145.847 119.634 151.927 119.51L167.281 119.749L192.605 122.244Z" fill="#FF4000"/>
<path d="M197.443 209.813C194.527 212.213 188.839 216.821 187.758 219.144C186.554 221.802 185.846 225.836 185.034 227.346C184.221 228.857 185.445 229.622 187.127 229.077C188.81 228.532 189.814 227.107 191.114 223.628C192.414 220.148 196.028 217.423 196.028 217.423L197.443 209.813Z" fill="#874C4C"/>
<path d="M186.793 241.103C187.491 242.451 189.116 242.461 190.617 242.575C192.447 242.785 194.3 242.576 196.037 241.964C198.125 241.361 199.956 240.087 201.248 238.34C202.72 236.218 203.102 233.56 203.944 231.123C205.703 226.008 210.941 222.318 211.802 216.897C212.156 214.66 212.156 212.022 212.758 210.635C213.131 209.813 221.744 194.986 224.823 188.561C227.767 182.386 229.975 179.479 227.299 172.061C224.622 164.642 215.511 138.534 209.058 129.462C205.406 124.318 199.603 122.846 192.567 122.244C187.213 136.182 193.437 150.589 193.437 150.589L207.643 177.912C207.643 177.912 202.137 196.726 198.695 207.184C197.739 210.052 195.827 211.888 193.638 215.11C192.682 216.505 190.521 218.934 189.756 220.454C188.8 222.366 188.8 223.628 188.322 226.333C187.577 230.645 186.42 240.463 186.793 241.103Z" fill="#9E6767"/>
<path d="M191.85 122.167C195.55 122.311 200.865 122.942 204.039 124.548C207.213 126.154 209.422 128.133 213.074 135.456C216.725 142.779 222.069 157.004 222.069 157.004C222.069 157.004 220.301 167.74 203.322 170.522L191.85 149.365C191.85 149.365 186.736 136.182 191.85 122.167Z" fill="#455A64"/>
<path d="M147.74 87.9998C148.242 88.9069 148.677 89.8495 149.041 90.82C149.606 92.0877 150.329 93.2793 151.192 94.3668C153.39 96.9002 156.478 98.7548 159.298 100.552C161 101.642 162.95 102.665 165.034 102.368C167.119 102.072 169.442 102.521 171.593 102.713L179.116 103.391L178.696 111.298C178.696 111.298 179.652 109.204 180.904 106.699C181.994 104.548 186.564 93.6402 186.583 93.5924C188.848 88.191 191.535 80.9828 188.829 75.3041C188.214 73.9058 187.187 72.7284 185.885 71.9294C186.147 71.0564 186.231 70.1397 186.133 69.2335C185.983 67.947 185.546 66.7105 184.854 65.6152C184.163 64.52 183.234 63.5938 182.137 62.9048C179.996 61.4578 177.583 60.4624 175.044 59.9795C171.677 59.2049 168.231 58.8231 164.776 58.8418C161.391 58.9451 158.021 59.3321 154.7 59.9986C152.848 60.3407 150.971 60.5357 149.088 60.5817C148.277 60.6349 147.463 60.5964 146.66 60.467C145.663 60.1689 144.683 59.8146 143.725 59.4058C143.642 59.3709 143.553 59.3529 143.462 59.3529C143.372 59.3529 143.283 59.3709 143.199 59.4058C143.124 59.4563 143.059 59.5226 143.012 59.6001C142.964 59.6777 142.933 59.7647 142.922 59.8552C142.674 61.0487 142.684 62.2816 142.953 63.4708C143.222 64.6599 143.743 65.7775 144.48 66.7479C144.05 66.6892 143.632 66.5668 143.238 66.3847C142.79 66.1776 142.359 65.938 141.947 65.6677C141.245 65.1972 140.631 64.6085 140.131 63.9277C140.062 63.821 139.956 63.7429 139.834 63.7078C139.643 63.7078 139.49 63.8417 139.375 63.9947C138.859 64.762 138.508 65.6279 138.344 66.5378C138.179 67.4478 138.205 68.3819 138.419 69.2813C138.841 71.0866 139.694 72.7629 140.905 74.1665C140.314 75.121 139.973 76.2089 139.913 77.3299C139.853 78.4509 140.076 79.569 140.561 80.5812C140.986 81.4791 141.558 82.2997 142.253 83.0095C143.113 83.889 144.165 84.606 145.035 85.4282C146.033 86.1786 146.94 87.0415 147.74 87.9998Z" fill="#37474F"/>
<path d="M170.656 74.8261C170.628 76.2538 170.811 77.6777 171.2 79.0516C171.654 80.2585 172.384 81.3423 173.332 82.216C174.405 83.1259 175.396 84.1271 176.296 85.2083C177.267 86.8913 177.836 88.7757 177.959 90.7148C177.965 91.286 178.098 91.8486 178.35 92.3615C178.601 92.8743 178.964 93.3243 179.412 93.6784C181.458 94.9499 182.682 92.493 183.772 91.2884C185.177 89.9883 189.355 88.4204 191.286 92.8372C193.284 97.426 189.594 103.506 186.238 104.443C180.455 106.059 179.193 102.12 179.193 102.12L178.084 122.77C174.824 128.955 167.157 130.924 162.118 129.94C157.769 129.089 155.379 126.039 159.47 121.622L159.69 115.332C159.69 115.332 154.47 115.953 151.956 115.475C147.759 114.691 145.685 111.125 144.547 106.527C142.74 99.1372 141.909 91.3649 144.155 74.721C145.178 74.1569 149.318 77.3786 155.627 77.8088C160.813 78.1744 166.002 77.1445 170.656 74.8261Z" fill="#9E6767"/>
<path d="M159.652 115.313C159.652 115.313 169.116 113.726 172.462 112.081C174.426 111.136 176.058 109.62 177.147 107.732C176.588 109.638 175.652 111.414 174.393 112.951C171.889 115.944 159.566 117.817 159.566 117.817L159.652 115.313Z" fill="#874C4C"/>
<path d="M164.575 82.216L168.982 83.564C169.151 82.9619 169.08 82.318 168.784 81.7673C168.488 81.2165 167.99 80.8018 167.395 80.6099C167.105 80.5248 166.8 80.499 166.499 80.5341C166.198 80.5693 165.908 80.6646 165.644 80.8145C165.381 80.9644 165.151 81.1657 164.967 81.4065C164.784 81.6473 164.65 81.9226 164.575 82.216Z" fill="#263238"/>
<path d="M163.046 103.095L156.555 105.294C156.681 105.728 156.893 106.132 157.179 106.482C157.464 106.832 157.817 107.122 158.217 107.333C158.616 107.544 159.054 107.673 159.504 107.712C159.954 107.751 160.408 107.699 160.838 107.56C161.711 107.245 162.429 106.604 162.84 105.772C163.252 104.94 163.326 103.98 163.046 103.095Z" fill="#874C4C"/>
<path d="M162.52 104.682C161.673 104.683 160.85 104.965 160.18 105.484C159.51 106.003 159.032 106.73 158.82 107.55C159.475 107.765 160.182 107.765 160.837 107.55C161.442 107.336 161.977 106.961 162.385 106.466C162.792 105.971 163.057 105.374 163.151 104.739C162.943 104.701 162.732 104.682 162.52 104.682Z" fill="#F28F8F"/>
<path d="M144.901 82.9139L149.384 82.3307C149.35 82.0404 149.259 81.7599 149.114 81.5057C148.97 81.2515 148.776 81.0287 148.545 80.8505C148.313 80.6723 148.048 80.5423 147.765 80.4681C147.483 80.394 147.188 80.3772 146.899 80.4187C146.308 80.4954 145.769 80.7982 145.397 81.2634C145.024 81.7287 144.846 82.3203 144.901 82.9139Z" fill="#263238"/>
<path d="M172.462 84.8259L187.252 89.864C186.423 89.8736 185.608 90.0734 184.868 90.448C184.129 90.8226 183.486 91.362 182.988 92.0246L172.52 88.0476L172.462 84.8259Z" fill="#263238"/>
<path d="M147.109 90.6001C147.093 90.8381 147.124 91.077 147.2 91.3027C147.277 91.5285 147.399 91.7366 147.557 91.9148C147.716 92.093 147.908 92.2376 148.124 92.3402C148.339 92.4428 148.573 92.5012 148.811 92.5121C149.048 92.5147 149.284 92.4704 149.504 92.3819C149.724 92.2935 149.925 92.1625 150.094 91.9965C150.264 91.8305 150.399 91.6327 150.492 91.4144C150.585 91.1962 150.635 90.9617 150.637 90.7244C150.654 90.4865 150.623 90.2476 150.546 90.0218C150.469 89.796 150.348 89.5879 150.189 89.4098C150.031 89.2316 149.838 89.0869 149.623 88.9843C149.407 88.8818 149.174 88.8233 148.935 88.8124C148.698 88.8099 148.463 88.8541 148.242 88.9426C148.022 89.0311 147.822 89.1621 147.652 89.3281C147.483 89.4941 147.347 89.6919 147.254 89.9101C147.161 90.1284 147.112 90.3629 147.109 90.6001Z" fill="#263238"/>
<path d="M164.002 90.6002C164.004 90.9471 164.108 91.2857 164.301 91.5739C164.494 91.8621 164.768 92.0872 165.088 92.2212C165.408 92.3551 165.76 92.3919 166.101 92.3271C166.442 92.2623 166.756 92.0988 167.004 91.8567C167.253 91.6147 167.425 91.3049 167.499 90.966C167.572 90.627 167.545 90.2738 167.42 89.9504C167.294 89.6269 167.076 89.3475 166.793 89.1469C166.51 88.9462 166.175 88.8333 165.828 88.822C165.35 88.8169 164.89 89.0011 164.548 89.3343C164.206 89.6675 164.01 90.1226 164.002 90.6002Z" fill="#263238"/>
<path d="M138.381 85.8966C138.489 86.6698 138.821 87.3943 139.337 87.9807C139.514 88.1988 139.642 88.4534 139.71 88.7264C140.054 90.1508 140.35 92.8467 141.029 94.3572C141.49 95.5746 142.323 96.6159 143.409 97.3333C144.495 98.0506 145.78 98.4075 147.08 98.3533C147.773 98.3793 148.467 98.3215 149.145 98.1812H149.298C149.888 98.0424 150.454 97.8203 150.981 97.5216L151.077 97.4546L151.22 97.3686L151.402 97.2443L151.564 97.1105L151.746 96.9671C151.81 96.9238 151.867 96.8723 151.918 96.8141C152.033 96.7098 152.142 96.598 152.243 96.4795C152.807 95.8484 153.263 95.128 153.591 94.3476C154.47 92.3783 154.241 89.625 155.675 89.3H155.847H156.038C157.95 89.3 157.778 92.3305 158.906 94.4719C160.034 96.6134 161.774 98.707 166.048 98.7644H166.592C166.739 98.7742 166.886 98.7742 167.032 98.7644C167.376 98.7434 167.718 98.6954 168.055 98.621L168.371 98.5445C168.474 98.5215 168.576 98.4927 168.677 98.4584L168.877 98.4011C169.278 98.26 169.662 98.0774 170.024 97.8562C170.158 97.779 170.285 97.6927 170.407 97.598C170.644 97.4244 170.865 97.2291 171.067 97.0149C171.612 96.4341 172.049 95.7607 172.357 95.0264C173.017 93.5446 173.189 90.8487 173.514 89.4434C173.571 89.1547 173.681 88.8791 173.839 88.6308C174.349 88.071 174.682 87.3723 174.795 86.6232C174.818 86.2393 174.714 85.8586 174.5 85.5391C174.286 85.2197 173.973 84.9793 173.609 84.8546L172.567 84.7207C169.221 84.3096 164.862 84.1376 162.252 84.845C158.983 85.7341 157.845 86.757 156.019 86.757C154.193 86.757 153.208 85.6289 150.101 84.6156C147.635 83.8125 143.553 83.8412 140.436 84.128L139.48 84.2236C139.14 84.3453 138.849 84.5744 138.651 84.8762C138.452 85.178 138.358 85.5362 138.381 85.8966ZM159.91 87.952C160.168 87.6318 160.495 87.3737 160.866 87.1968C160.917 87.1596 160.971 87.1276 161.029 87.1012H161.124C161.268 87.0247 161.42 86.9482 161.583 86.8813L162.013 86.7092C162.47 86.5357 162.936 86.3889 163.409 86.2694L163.963 86.1356C164.441 86.04 164.919 85.9635 165.397 85.9157C165.512 85.9067 165.627 85.9067 165.742 85.9157C168.887 85.6576 170.856 86.4033 171.573 87.0438C172.29 87.6843 171.975 90.6288 171.678 92.1106V92.2158C171.678 92.2158 171.678 92.2922 171.678 92.3305C171.678 92.5121 171.602 92.7129 171.545 92.9328C171.487 93.1526 171.478 93.1718 171.439 93.296C171.372 93.4968 171.306 93.6976 171.229 93.9079C171.201 93.9797 171.169 94.0499 171.133 94.1182C171.12 94.1606 171.104 94.2021 171.086 94.2425L171.019 94.3859L170.933 94.558L170.828 94.7587C170.828 94.8256 170.741 94.8926 170.694 94.9595C170.655 95.033 170.61 95.1034 170.56 95.1698C170.067 95.8671 169.402 96.4253 168.63 96.7904C167.858 97.1555 167.005 97.3152 166.153 97.2539C165.297 97.3006 164.441 97.1664 163.64 96.86C162.84 96.5536 162.113 96.082 161.507 95.4757C160.752 94.6287 160.228 93.6014 159.986 92.493C159.518 90.82 159.298 88.8506 159.91 87.952ZM141.383 86.4128C141.61 86.2108 141.868 86.0462 142.148 85.9253H142.205L142.549 85.7914L142.759 85.7245H142.931H143.046H143.094H143.266C143.486 85.7245 143.725 85.6385 143.993 85.6002H144.385H145.656C146.115 85.6002 146.612 85.6672 147.109 85.7341C149.356 86.0591 151.708 87.1012 152.319 88.0285C152.931 88.9558 152.797 90.8965 152.501 92.5121C152.437 92.8892 152.341 93.2601 152.214 93.6211C152.211 93.6497 152.211 93.6785 152.214 93.7071C152.214 93.7071 152.214 93.774 152.214 93.8123V93.8888L152.157 94.0226L152.042 94.2903C152.042 94.3668 151.966 94.4528 151.918 94.5293C151.92 94.5547 151.92 94.5803 151.918 94.6058L151.822 94.7683L151.736 94.9021C151.226 95.6536 150.52 96.2507 149.694 96.6283C148.868 97.0059 147.954 97.1495 147.052 97.0436C146.235 97.026 145.433 96.8303 144.7 96.47C142.463 95.3419 141.889 92.8276 141.631 91.69C141.153 89.9787 140.714 87.0438 141.383 86.4033V86.4128Z" fill="#263238"/>
<path d="M156.554 89.3478L156.22 101.642L149.365 99.6535L155.761 89.2426C156.03 89.2169 156.301 89.2529 156.554 89.3478Z" fill="#874C4C"/>
<path d="M252.403 90.906C271.965 90.906 287.823 77.0169 287.823 59.8838C287.823 42.7507 271.965 28.8616 252.403 28.8616C232.841 28.8616 216.983 42.7507 216.983 59.8838C216.983 77.0169 232.841 90.906 252.403 90.906Z" fill="#FF4000"/>
<path d="M224.134 77.8279C223.933 81.9865 220.415 89.4242 214.058 92.1679C213.973 92.2041 213.901 92.266 213.854 92.3449C213.806 92.4239 213.784 92.5159 213.791 92.6079C213.799 92.6999 213.835 92.7873 213.895 92.8576C213.955 92.9279 214.035 92.9776 214.125 92.9997C217.759 93.8051 221.549 93.5321 225.03 92.2143C228.512 90.8965 231.533 88.5911 233.723 85.5811L224.134 77.8279Z" fill="#FF4000"/>
<path d="M228.388 57.4269C228.468 56.0673 228.792 54.7332 229.344 53.4882C229.865 52.2701 230.641 51.178 231.619 50.2856C232.654 49.3393 233.861 48.6024 235.176 48.1155C238.328 47.0447 241.746 47.0447 244.898 48.1155C246.225 48.6001 247.446 49.337 248.493 50.2856C249.467 51.1963 250.237 52.3044 250.749 53.536C251.301 54.781 251.625 56.1151 251.705 57.4747C251.753 58.5454 251.772 59.664 251.772 60.8303C251.772 61.9966 251.772 63.096 251.705 64.1094C251.625 65.469 251.301 66.8031 250.749 68.0481C250.223 69.2685 249.448 70.3657 248.474 71.2698C247.434 72.2275 246.211 72.9655 244.879 73.4399C241.723 74.4849 238.313 74.4849 235.157 73.4399C233.83 72.9663 232.614 72.228 231.581 71.2698C230.604 70.3686 229.828 69.2706 229.306 68.0481C228.754 66.8031 228.43 65.469 228.35 64.1094C228.302 63.096 228.273 61.9966 228.273 60.8303C228.273 59.664 228.34 58.4976 228.388 57.4269ZM244.736 63.8799C244.736 63.4306 244.784 62.9239 244.812 62.3886C244.841 61.8532 244.812 61.2796 244.812 60.706C244.812 60.1324 244.812 59.5779 244.812 59.0426C244.812 58.5072 244.755 58.0866 244.736 57.6086C244.695 57.0213 244.562 56.444 244.344 55.8973C244.138 55.3865 243.832 54.9218 243.445 54.5302C243.037 54.1297 242.548 53.8202 242.011 53.622C240.707 53.1763 239.291 53.1763 237.986 53.622C237.448 53.8223 236.956 54.1315 236.543 54.5302C236.158 54.9222 235.856 55.3869 235.654 55.8973C235.435 56.444 235.303 57.0213 235.262 57.6086C235.203 58.0844 235.171 58.5631 235.166 59.0426C235.166 59.5779 235.166 60.1324 235.166 60.706C235.166 61.2796 235.166 61.8341 235.166 62.3886C235.171 62.887 235.203 63.3849 235.262 63.8799C235.32 65.029 235.772 66.123 236.543 66.9774C237.001 67.4107 237.545 67.7434 238.139 67.9542C238.733 68.1649 239.365 68.249 239.994 68.201C240.62 68.2511 241.25 68.1679 241.841 67.957C242.433 67.7461 242.973 67.4122 243.426 66.9774C244.19 66.1161 244.65 65.0279 244.736 63.8799Z" fill="#FAFAFA"/>
<path d="M278.196 72.5699C278.275 72.6916 278.312 72.8361 278.301 72.981C278.302 73.0879 278.282 73.1939 278.241 73.2925C278.199 73.3912 278.139 73.4804 278.062 73.5546C277.988 73.6327 277.899 73.695 277.8 73.7378C277.702 73.7805 277.596 73.8027 277.488 73.8032H271.504C271.2 73.8143 270.901 73.7344 270.643 73.5737C270.394 73.3924 270.17 73.1804 269.974 72.9428L262.9 64.052V72.7803C262.896 73.038 262.795 73.2849 262.618 73.4725C262.441 73.66 262.201 73.7746 261.944 73.7936H257.049C256.916 73.7945 256.785 73.7678 256.663 73.7151C256.541 73.6624 256.432 73.585 256.341 73.4877C256.246 73.3966 256.17 73.2868 256.119 73.165C256.068 73.0433 256.043 72.9122 256.045 72.7803V48.6986C256.043 48.5666 256.068 48.4356 256.119 48.3139C256.17 48.1921 256.246 48.0822 256.341 47.9912C256.432 47.8939 256.541 47.8164 256.663 47.7638C256.785 47.7111 256.916 47.6844 257.049 47.6853H261.944C262.201 47.7043 262.441 47.8189 262.618 48.0064C262.795 48.1939 262.896 48.4408 262.9 48.6986V56.5665L269.467 48.5074C269.618 48.3273 269.777 48.155 269.945 47.9912C270.23 47.7601 270.594 47.6502 270.959 47.6853H276.771C276.88 47.6844 276.988 47.706 277.089 47.7488C277.189 47.7915 277.279 47.8545 277.354 47.9338C277.431 48.0081 277.492 48.0973 277.533 48.1959C277.574 48.2946 277.595 48.4006 277.593 48.5074C277.603 48.6535 277.563 48.7986 277.479 48.9185L268.301 60.228L278.196 72.5699Z" fill="#FAFAFA"/>
<path d="M343.796 89.2139L338.433 90.8296L334.562 77.8949L339.906 76.2888L343.796 89.2139Z" fill="#E0E0E0"/>
<path d="M360.536 77.7324C360.581 78.257 360.457 78.7823 360.184 79.2325C359.911 79.6827 359.502 80.0344 359.016 80.2371C359.364 80.6325 359.622 81.099 359.771 81.6042C360.077 82.5602 359.265 83.9464 357.649 84.4722L345.383 88.1623L341.779 76.1454C341.779 76.1454 343.854 70.8396 343.959 70.0366C344.064 69.2335 342.84 66.289 342.668 65.7346C342.496 65.1801 344.485 64.4535 346.053 65.0845C346.417 65.2466 346.743 65.4845 347.009 65.7824C347.573 66.3829 348.046 67.0624 348.414 67.7995C348.934 68.85 349.19 70.0118 349.16 71.1838L356.588 68.918C357.1 68.7326 357.662 68.7326 358.175 68.918C358.51 69.0506 358.806 69.2678 359.033 69.5483C359.26 69.8288 359.411 70.1633 359.47 70.5192C359.53 70.8751 359.496 71.2404 359.373 71.5796C359.25 71.9188 359.041 72.2205 358.767 72.4552C359.21 72.4232 359.65 72.5405 360.017 72.7884C360.385 73.0363 360.658 73.4004 360.794 73.8223C360.908 74.3129 360.848 74.8275 360.624 75.2789C360.401 75.7303 360.029 76.0905 359.57 76.2984C360.066 76.6329 360.412 77.1472 360.536 77.7324Z" fill="#E0E0E0"/>
<path d="M420.64 223.331L413.767 221.677L417.772 205.1L424.646 206.754L420.64 223.331Z" fill="#E0E0E0"/>
<path d="M446.232 221.467C445.947 222.067 445.479 222.562 444.895 222.88C444.311 223.198 443.641 223.322 442.982 223.236C443.106 223.888 443.09 224.559 442.934 225.205C442.628 226.496 440.879 227.442 438.814 226.935L423.078 223.111L426.787 207.71C426.787 207.71 432.437 203.246 433.059 202.433C433.68 201.62 434.216 197.653 434.388 196.917C434.56 196.181 437.189 196.678 438.498 198.37C438.816 198.781 439.038 199.258 439.148 199.766C439.381 200.778 439.464 201.818 439.397 202.854C439.293 204.334 438.834 205.767 438.059 207.031L447.561 209.326C448.236 209.469 448.838 209.844 449.263 210.387C449.498 210.697 449.665 211.053 449.753 211.432C449.84 211.811 449.846 212.204 449.77 212.586C449.642 213.088 449.377 213.545 449.004 213.905C448.63 214.265 448.164 214.513 447.657 214.622C448.16 214.868 448.565 215.277 448.808 215.781C449.051 216.286 449.117 216.857 448.995 217.404C448.802 218.008 448.406 218.528 447.876 218.876C447.345 219.224 446.711 219.379 446.079 219.316C446.408 219.986 446.463 220.757 446.232 221.467Z" fill="#E0E0E0"/>
<path d="M73.4399 213.417L80.9445 215.674L86.3746 197.567L78.8796 195.311L73.4399 213.417Z" fill="#E0E0E0"/>
<path d="M49.9892 197.328C49.9266 198.063 50.0994 198.799 50.4827 199.43C50.8659 200.061 51.4397 200.553 52.1211 200.837C51.6393 201.392 51.2809 202.044 51.0695 202.749C50.6393 204.154 51.7865 206.037 54.0331 206.706L71.2411 211.878L76.2697 195.024C76.2697 195.024 73.3539 187.586 73.2105 186.42C73.0671 185.254 74.7879 181.181 75.0173 180.397C75.2085 179.766 72.4744 178.61 70.2373 179.499C69.7054 179.707 69.2281 180.034 68.8416 180.455C68.0472 181.308 67.3835 182.275 66.8722 183.323C66.1397 184.807 65.7788 186.448 65.8206 188.103L55.4958 184.986C54.7677 184.747 53.9782 184.774 53.2683 185.063C52.7978 185.248 52.3833 185.552 52.0653 185.945C51.7473 186.338 51.5366 186.807 51.4537 187.306C51.3709 187.804 51.4188 188.316 51.5928 188.791C51.7667 189.266 52.0607 189.687 52.4462 190.015C51.8222 189.961 51.1985 190.121 50.6774 190.469C50.1563 190.816 49.7687 191.33 49.5782 191.927C49.4192 192.615 49.5027 193.337 49.8145 193.971C50.1262 194.605 50.6472 195.112 51.2894 195.406C50.6344 195.865 50.1715 196.549 49.9892 197.328Z" fill="#E0E0E0"/>
</svg>
