<svg width="579" height="386" viewBox="0 0 579 386" fill="none" xmlns="http://www.w3.org/2000/svg">
<path d="M479.188 145.761C483.542 142.839 484.704 136.94 481.782 132.585C478.86 128.23 472.961 127.069 468.606 129.99C464.251 132.912 463.09 138.811 466.012 143.166C468.934 147.521 474.833 148.683 479.188 145.761Z" fill="#E0E0E0"/>
<path d="M445.706 147.985C451.292 147.985 455.82 143.457 455.82 137.871C455.82 132.286 451.292 127.758 445.706 127.758C440.121 127.758 435.593 132.286 435.593 137.871C435.593 143.457 440.121 147.985 445.706 147.985Z" fill="#E0E0E0"/>
<path d="M424.044 130.707C429.971 130.707 434.775 125.903 434.775 119.977C434.775 114.05 429.971 109.246 424.044 109.246C418.118 109.246 413.313 114.05 413.313 119.977C413.313 125.903 418.118 130.707 424.044 130.707Z" fill="#E0E0E0"/>
<path d="M419.644 103.687C425.835 103.687 430.853 98.6687 430.853 92.4779C430.853 86.2871 425.835 81.2684 419.644 81.2684C413.453 81.2684 408.435 86.2871 408.435 92.4779C408.435 98.6687 413.453 103.687 419.644 103.687Z" fill="#E0E0E0"/>
<path d="M433.378 79.9869C439.777 79.9869 444.965 74.7989 444.965 68.3992C444.965 61.9995 439.777 56.8115 433.378 56.8115C426.978 56.8115 421.79 61.9995 421.79 68.3992C421.79 74.7989 426.978 79.9869 433.378 79.9869Z" fill="#E0E0E0"/>
<path d="M459.757 71.5104C466.732 71.5104 472.387 65.8557 472.387 58.8804C472.387 51.9051 466.732 46.2505 459.757 46.2505C452.782 46.2505 447.127 51.9051 447.127 58.8804C447.127 65.8557 452.782 71.5104 459.757 71.5104Z" fill="#E0E0E0"/>
<path d="M503.736 121.834C504.894 116.903 501.835 111.967 496.904 110.81C491.972 109.652 487.037 112.711 485.879 117.642C484.722 122.574 487.781 127.509 492.712 128.667C497.643 129.824 502.579 126.765 503.736 121.834Z" fill="#E0E0E0"/>
<path d="M499.739 100.677C504.437 100.677 508.246 96.8676 508.246 92.1691C508.246 87.4706 504.437 83.6617 499.739 83.6617C495.04 83.6617 491.231 87.4706 491.231 92.1691C491.231 96.8676 495.04 100.677 499.739 100.677Z" fill="#E0E0E0"/>
<path d="M485.588 75.8567C489.881 75.8567 493.362 72.3762 493.362 68.0827C493.362 63.7892 489.881 60.3087 485.588 60.3087C481.295 60.3087 477.814 63.7892 477.814 68.0827C477.814 72.3762 481.295 75.8567 485.588 75.8567Z" fill="#E0E0E0"/>
<path d="M159.804 61.567C160.665 61.3769 161.552 61.33 162.429 61.428C164.477 61.6274 166.424 62.415 168.035 63.6957C169.645 64.9764 170.852 66.6957 171.507 68.6462C172.128 70.4837 172.243 72.4543 171.839 74.3513C171.384 76.458 170.308 78.3803 168.751 79.8711C167.093 81.488 164.96 82.5295 162.665 82.8423C160.37 83.155 158.036 82.7223 156.006 81.6081C154.116 80.575 152.576 79.0029 151.582 77.0919C150.689 75.37 150.276 73.4394 150.386 71.5026C150.479 69.8221 150.969 68.1874 151.814 66.7317C153.023 64.6077 154.934 62.9702 157.218 62.0997C158.033 61.7731 158.896 61.5827 159.773 61.5361C159.773 61.6133 158.847 61.6828 157.303 62.3081C155.127 63.2367 153.325 64.8675 152.184 66.9401C151.345 68.4495 150.895 70.1449 150.878 71.872C150.86 73.5992 151.275 75.3033 152.084 76.8294C152.541 77.7086 153.129 78.5129 153.829 79.2149C154.556 79.9626 155.401 80.5859 156.33 81.06C158.249 82.1071 160.454 82.5131 162.62 82.2187C164.787 81.9242 166.803 80.9448 168.373 79.4233C169.844 78.0149 170.862 76.201 171.299 74.2123C171.691 72.4195 171.601 70.5547 171.037 68.8083C170.542 67.2761 169.693 65.8821 168.558 64.7399C166.907 63.0437 164.73 61.9555 162.382 61.6519C161.525 61.5805 160.664 61.5522 159.804 61.567Z" fill="#E0E0E0"/>
<path d="M163.826 47.9952C163.826 47.9952 163.772 47.8872 163.68 47.6478L163.263 46.6056C162.884 45.6406 162.352 44.2433 161.649 42.4446L161.757 42.5063L151.984 43.8882L152.115 43.7492C151.968 45.548 151.799 47.5475 151.621 49.6859V49.794L151.521 49.8403C149.549 50.6642 147.698 51.7496 146.016 53.0673L145.924 53.1445L145.808 53.0904L140.404 50.6355L140.666 50.566L134.714 58.4327V58.1393L138.574 62.7018L138.675 62.8176L138.613 62.9566C137.805 64.9351 137.262 67.0118 136.999 69.1326V69.2947L136.845 69.3488L131.263 71.4409L131.441 71.1552C131.858 74.2432 132.313 77.5397 132.776 80.9288L132.522 80.6894L138.458 81.2067H138.636L138.705 81.3688C139.525 83.33 140.603 85.1733 141.909 86.85L142.017 86.989L141.94 87.1511C141.168 88.8572 140.327 90.71 139.47 92.5551L139.385 92.1922L147.236 98.1675H146.858L151.428 94.3075L151.567 94.1917L151.737 94.2612C153.702 95.0701 155.766 95.6152 157.874 95.8824C157.982 95.9673 157.627 95.6894 158.121 96.0831V96.1758L158.191 96.3456L158.322 96.7007L158.584 97.4032L159.102 98.8006C159.457 99.7347 159.796 100.661 160.144 101.587L159.82 101.394L169.601 100.067L169.338 100.337C169.513 98.3399 169.688 96.361 169.863 94.4002V94.2226L170.033 94.1531C171.996 93.336 173.842 92.2612 175.522 90.957L175.661 90.849L175.823 90.9184L181.227 93.3966L180.88 93.4892L186.863 85.638V85.9931C185.566 84.4491 184.284 82.9051 183.003 81.4151L182.895 81.2839L182.964 81.1372C183.778 79.1596 184.325 77.0828 184.593 74.9612V74.8068L184.74 74.7528L190.329 72.6761L190.167 72.9463C189.704 69.5032 189.271 66.253 188.862 63.165L189.071 63.3658L183.134 62.8254H183.003L182.949 62.7096C182.161 60.7908 181.128 58.9821 179.876 57.3287L179.807 57.2284L179.853 57.1203C180.756 55.1517 181.575 53.3838 182.347 51.7163L182.401 51.9324L174.573 45.9186H174.742L170.11 49.7168H170.064H170.01C168.515 49.092 166.964 48.6111 165.378 48.2809L164.205 48.0647L163.811 47.9875C163.944 47.977 164.079 47.977 164.212 47.9875C164.475 47.9875 164.869 48.0647 165.401 48.1651C166.989 48.4506 168.541 48.9035 170.033 49.5161H169.933C171.176 48.4584 172.658 47.2001 174.48 45.6561L174.557 45.5866L174.65 45.6484L182.524 51.5928L182.64 51.6777L182.578 51.8089C181.806 53.4919 181.034 55.2675 180.123 57.2129V57.0045C181.462 58.7154 182.565 60.5978 183.404 62.6015L183.227 62.4702L189.163 62.9798H189.349V63.165C189.773 66.253 190.213 69.4954 190.692 72.9386V73.1393L190.507 73.2088L184.925 75.3009L185.095 75.0924C184.823 77.2532 184.268 79.3687 183.443 81.3842L183.397 81.1063C184.657 82.5937 185.944 84.1145 187.257 85.6688L187.403 85.8387L187.264 86.0162L181.297 93.8752L181.158 94.0605L180.949 93.9601L175.545 91.4974H175.846C174.124 92.8359 172.232 93.9392 170.218 94.7784L170.404 94.5314C170.234 96.4923 170.056 98.4686 169.887 100.468V100.707H169.647L159.874 102.043H159.634L159.549 101.811L158.507 99.0322L157.982 97.6271L157.72 96.9246L157.589 96.5772L157.519 96.3996V96.3147V96.2684C158.013 96.6621 157.658 96.3765 157.766 96.4614C155.605 96.1896 153.489 95.6314 151.474 94.8016L151.791 94.7553L147.213 98.6153L147.028 98.7697L146.842 98.623L138.96 92.6863L138.767 92.5474L138.868 92.3312L141.346 86.9272L141.384 87.2283C140.048 85.506 138.947 83.6134 138.111 81.6004L138.35 81.778L132.414 81.253H132.19V81.0291C131.727 77.6323 131.287 74.3204 130.87 71.2479V71.0317L131.07 70.9622L136.652 68.8778L136.49 69.094C136.76 66.9337 137.321 64.8198 138.157 62.8099V63.0647L134.328 58.4404L134.205 58.2937L134.32 58.147C136.384 55.409 138.373 52.7971 140.288 50.3112L140.388 50.1723L140.551 50.2418L145.955 52.7276H145.746C147.462 51.3969 149.35 50.3036 151.359 49.4775L151.25 49.6242C151.443 47.4857 151.629 45.4862 151.799 43.6875V43.564H151.922L161.703 42.2979H161.781V42.3674L163.278 46.5284C163.44 46.9839 163.564 47.3004 163.656 47.6092C163.727 47.7314 163.784 47.8608 163.826 47.9952Z" fill="#E0E0E0"/>
<path fill-rule="evenodd" clip-rule="evenodd" d="M116.572 104.992C119.593 105.369 122.55 106.148 125.365 107.308L131.827 101.904L142.951 110.396L139.454 118.062C141.322 120.469 142.863 123.111 144.04 125.921L152.431 126.693L154.307 140.504L146.41 143.453C146.036 146.475 145.257 149.432 144.094 152.246L149.498 158.708L141.052 169.809L133.378 166.312C130.975 168.184 128.332 169.726 125.52 170.898L124.748 179.289L110.921 181.165L107.972 173.268C104.951 172.89 101.994 172.111 99.1789 170.952L92.7172 176.356L81.6159 167.91L85.113 160.236C83.2436 157.832 81.704 155.189 80.5351 152.377L72.1357 151.605L70.2598 137.779L78.1573 134.83C78.5318 131.808 79.3107 128.851 80.4733 126.037L75.0693 119.575L83.515 108.474L91.1887 111.971C93.5937 110.103 96.2365 108.564 99.0476 107.393L99.8196 98.9936L113.646 97.1176L116.572 104.992ZM110.898 124.184C107.964 124.58 105.213 125.838 102.993 127.798C100.774 129.758 99.1856 132.332 98.4293 135.195C97.673 138.057 97.7827 141.08 98.7444 143.88C99.7062 146.681 101.477 149.133 103.832 150.927C106.188 152.721 109.023 153.776 111.978 153.959C114.933 154.142 117.876 153.444 120.435 151.954C122.994 150.464 125.053 148.248 126.352 145.588C127.652 142.927 128.133 139.941 127.735 137.007C127.196 133.083 125.124 129.533 121.972 127.133C118.821 124.734 114.847 123.682 110.921 124.207L110.898 124.184Z" fill="#E0E0E0"/>
<path d="M551.208 331.188C551.208 331.304 434.026 331.389 289.5 331.389C144.974 331.389 27.792 331.273 27.792 331.188C27.792 331.103 144.951 330.987 289.5 330.987C434.049 330.987 551.208 331.049 551.208 331.188Z" fill="#263238"/>
<path d="M457.101 102.846H141.994C135.782 102.846 130.746 107.882 130.746 114.094V314.852C130.746 321.065 135.782 326.101 141.994 326.101H457.101C463.313 326.101 468.349 321.065 468.349 314.852V114.094C468.349 107.882 463.313 102.846 457.101 102.846Z" fill="#455A64"/>
<path d="M117.552 311.68H483.318V317.477C483.318 321.122 481.87 324.617 479.293 327.194C476.716 329.771 473.221 331.219 469.576 331.219H131.294C127.649 331.219 124.154 329.771 121.577 327.194C119 324.617 117.552 321.122 117.552 317.477V311.68Z" fill="#455A64"/>
<path d="M458.344 111.716H139.809V300.254H458.344V111.716Z" fill="#263238"/>
<path d="M266.271 309.587L270.81 316.806H334.677L338.893 309.587H266.271Z" fill="#263238"/>
<path d="M449.914 118.101H148.896C147.501 118.101 146.371 119.231 146.371 120.625V297.127C146.371 298.522 147.501 299.652 148.896 299.652H449.914C451.308 299.652 452.438 298.522 452.438 297.127V120.625C452.438 119.231 451.308 118.101 449.914 118.101Z" fill="#EBEBEB"/>
<path d="M452.114 299.914H146.047L146.371 131.665H452.114V299.914Z" fill="#FAFAFA"/>
<path d="M171.469 125.11C171.469 125.595 171.325 126.068 171.056 126.471C170.786 126.873 170.404 127.187 169.956 127.372C169.509 127.557 169.016 127.605 168.541 127.51C168.066 127.415 167.63 127.181 167.288 126.838C166.946 126.495 166.714 126.058 166.62 125.583C166.527 125.108 166.576 124.615 166.763 124.168C166.949 123.721 167.264 123.34 167.667 123.072C168.071 122.804 168.545 122.662 169.029 122.663C169.35 122.663 169.668 122.726 169.965 122.85C170.261 122.973 170.53 123.153 170.757 123.38C170.984 123.608 171.163 123.878 171.285 124.174C171.407 124.471 171.47 124.789 171.469 125.11Z" fill="#263238"/>
<path d="M156.654 125.11C156.654 125.595 156.511 126.068 156.241 126.471C155.972 126.873 155.589 127.187 155.142 127.372C154.694 127.557 154.202 127.605 153.727 127.51C153.252 127.415 152.816 127.181 152.474 126.838C152.132 126.495 151.899 126.058 151.806 125.583C151.712 125.108 151.762 124.615 151.948 124.168C152.135 123.721 152.45 123.34 152.853 123.072C153.256 122.804 153.73 122.662 154.215 122.663C154.536 122.663 154.854 122.726 155.15 122.85C155.447 122.973 155.716 123.153 155.942 123.38C156.169 123.608 156.349 123.878 156.471 124.174C156.593 124.471 156.655 124.789 156.654 125.11Z" fill="#263238"/>
<path d="M163.772 125.11C163.772 125.594 163.628 126.067 163.359 126.47C163.091 126.872 162.708 127.186 162.261 127.371C161.814 127.557 161.322 127.605 160.847 127.511C160.373 127.416 159.936 127.183 159.594 126.841C159.252 126.499 159.019 126.062 158.924 125.588C158.83 125.113 158.879 124.621 159.064 124.174C159.249 123.727 159.563 123.344 159.965 123.076C160.368 122.807 160.841 122.663 161.325 122.663C161.974 122.663 162.596 122.921 163.055 123.38C163.514 123.839 163.772 124.461 163.772 125.11Z" fill="#263238"/>
<path d="M465.446 309.572C465.446 309.696 390.516 309.788 298.107 309.788C205.699 309.788 130.746 309.696 130.746 309.572C130.746 309.448 205.63 309.356 298.107 309.356C390.585 309.356 465.446 309.464 465.446 309.572Z" fill="#263238"/>
<path d="M406.535 215.195H198.55C196.108 215.195 193.765 214.225 192.038 212.497C190.311 210.77 189.34 208.428 189.34 205.985C189.34 203.542 190.31 201.198 192.037 199.47C193.764 197.741 196.107 196.769 198.55 196.767H406.535C408.978 196.769 411.321 197.741 413.048 199.47C414.775 201.198 415.745 203.542 415.745 205.985C415.745 208.428 414.774 210.77 413.047 212.497C411.32 214.225 408.977 215.195 406.535 215.195Z" fill="#EBEBEB"/>
<path d="M306.013 215.195H294.904C293.677 215.205 292.461 214.972 291.326 214.508C290.19 214.045 289.158 213.361 288.289 212.495C287.42 211.63 286.732 210.601 286.264 209.467C285.796 208.334 285.557 207.119 285.562 205.892C285.545 204.69 285.769 203.496 286.22 202.381C286.672 201.267 287.343 200.254 288.193 199.403C289.043 198.553 290.055 197.881 291.169 197.428C292.284 196.975 293.477 196.751 294.68 196.767L306.013 196.814C308.499 196.854 310.87 197.873 312.611 199.649C314.352 201.424 315.324 203.815 315.315 206.302C315.315 211.435 311.116 215.195 306.013 215.195Z" fill="#E0E0E0"/>
<mask id="mask0_54_347" style="mask-type:luminance" maskUnits="userSpaceOnUse" x="189" y="196" width="121" height="20">
<path d="M302.863 215.195H198.55C196.108 215.195 193.765 214.225 192.038 212.497C190.311 210.77 189.34 208.428 189.34 205.985C189.34 203.542 190.31 201.198 192.037 199.47C193.764 197.741 196.107 196.769 198.55 196.767H302.863C304.614 196.767 306.292 197.463 307.53 198.701C308.768 199.938 309.464 201.617 309.464 203.368V208.594C309.464 210.345 308.768 212.024 307.53 213.262C306.292 214.5 304.614 215.195 302.863 215.195Z" fill="white"/>
</mask>
<g mask="url(#mask0_54_347)">
<path d="M300.246 215.195H198.55C196.108 215.195 193.765 214.225 192.038 212.497C190.311 210.77 189.34 208.428 189.34 205.985C189.34 203.542 190.31 201.198 192.037 199.47C193.764 197.741 196.107 196.769 198.55 196.767H300.246C302.691 196.767 305.035 197.738 306.764 199.467C308.492 201.196 309.464 203.54 309.464 205.985C309.464 207.195 309.225 208.393 308.762 209.511C308.298 210.629 307.619 211.645 306.763 212.5C305.907 213.355 304.891 214.034 303.773 214.496C302.654 214.959 301.456 215.196 300.246 215.195Z" fill="#FF4000"/>
<g opacity="0.2">
<path d="M202.071 196.767L213.327 215.195H221.286L209.582 196.767H202.071Z" fill="white"/>
</g>
<g opacity="0.2">
<path d="M185.041 196.767L196.296 215.195H204.256L192.552 196.767H185.041Z" fill="white"/>
</g>
<g opacity="0.2">
<path d="M218.545 196.767L229.793 215.195H237.761L226.057 196.767H218.545Z" fill="white"/>
</g>
<g opacity="0.2">
<path d="M235.02 196.767L246.268 215.195H254.235L242.532 196.767H235.02Z" fill="white"/>
</g>
<g opacity="0.2">
<path d="M251.486 196.767L262.742 215.195H270.701L258.998 196.767H251.486Z" fill="white"/>
</g>
<g opacity="0.2">
<path d="M267.961 196.767L279.209 215.195H287.176L275.472 196.767H267.961Z" fill="white"/>
</g>
<g opacity="0.2">
<path d="M284.436 196.767L295.684 215.195H303.651L291.947 196.767H284.436Z" fill="white"/>
</g>
<g opacity="0.2">
<path d="M300.902 196.767L312.158 215.195H320.117L308.414 196.767H300.902Z" fill="white"/>
</g>
</g>
<path d="M252.22 232.851C254.173 232.851 255.308 233.823 255.308 235.506C255.308 237.189 254.189 238.286 252.22 238.286H250.429V240.602H249.117V232.851H252.22ZM250.429 237.112H252.166C253.363 237.112 254.042 236.595 254.042 235.568C254.042 234.541 253.363 234.024 252.166 234.024H250.429V237.112Z" fill="#FF4000"/>
<path d="M256.798 240.632V232.372H258.079V240.632H256.798Z" fill="#FF4000"/>
<path d="M265.444 238.162H260.982C261.057 238.588 261.283 238.974 261.619 239.246C261.956 239.519 262.379 239.66 262.812 239.644C263.122 239.646 263.43 239.585 263.716 239.466C264.003 239.347 264.262 239.171 264.479 238.949L265.159 239.675C264.844 240.004 264.464 240.263 264.042 240.435C263.62 240.607 263.167 240.687 262.712 240.671C262.311 240.698 261.909 240.639 261.533 240.499C261.156 240.359 260.814 240.14 260.529 239.858C260.243 239.575 260.021 239.235 259.877 238.86C259.733 238.486 259.67 238.084 259.693 237.683C259.673 237.285 259.737 236.886 259.88 236.514C260.023 236.141 260.242 235.802 260.523 235.519C260.804 235.236 261.141 235.014 261.513 234.868C261.884 234.723 262.282 234.656 262.681 234.673C264.796 234.688 265.568 236.031 265.444 238.162ZM264.333 237.228C264.333 237.016 264.29 236.807 264.206 236.613C264.123 236.419 264 236.244 263.846 236.099C263.691 235.954 263.509 235.843 263.31 235.771C263.111 235.7 262.899 235.67 262.688 235.684C262.257 235.669 261.836 235.821 261.514 236.108C261.191 236.396 260.993 236.797 260.959 237.228H264.333Z" fill="#FF4000"/>
<path d="M270.547 239.907C270.302 240.176 269.999 240.385 269.66 240.519C269.322 240.653 268.957 240.708 268.594 240.679C268.335 240.708 268.072 240.682 267.822 240.603C267.573 240.525 267.343 240.394 267.148 240.221C266.952 240.048 266.795 239.836 266.686 239.598C266.578 239.36 266.52 239.103 266.518 238.841C266.518 237.768 267.29 237.081 268.749 237.066H270.532V236.888C270.532 236.116 270.061 235.699 269.127 235.699C268.498 235.717 267.889 235.928 267.382 236.301L266.857 235.414C267.603 234.893 268.495 234.623 269.405 234.642C270.949 234.642 271.783 235.414 271.79 236.718V240.578H270.54L270.547 239.907ZM270.547 238.556V238.008H268.949C268.116 238.008 267.73 238.231 267.73 238.78C267.73 239.328 268.162 239.66 268.872 239.66C269.768 239.675 270.47 239.196 270.532 238.548L270.547 238.556Z" fill="#FF4000"/>
<path d="M277.572 235.267L277.102 236.209C276.591 235.888 276.006 235.706 275.403 235.684C274.909 235.684 274.539 235.854 274.539 236.278C274.539 237.367 277.681 236.772 277.673 238.919C277.673 240.131 276.592 240.671 275.403 240.671C274.539 240.686 273.697 240.397 273.025 239.853L273.481 238.942C274.04 239.4 274.735 239.658 275.457 239.675C276.005 239.675 276.43 239.482 276.43 239.042C276.43 237.83 273.342 238.509 273.342 236.371C273.342 235.174 274.384 234.665 275.519 234.665C276.248 234.661 276.961 234.87 277.572 235.267Z" fill="#FF4000"/>
<path d="M284.381 238.162H279.919C279.995 238.588 280.222 238.972 280.558 239.244C280.894 239.516 281.317 239.658 281.749 239.644C282.059 239.646 282.367 239.585 282.653 239.466C282.94 239.347 283.199 239.171 283.416 238.949L284.096 239.675C283.782 240.005 283.401 240.264 282.979 240.436C282.557 240.607 282.104 240.688 281.649 240.671C281.248 240.698 280.846 240.639 280.47 240.499C280.093 240.359 279.751 240.14 279.466 239.858C279.18 239.575 278.958 239.235 278.814 238.86C278.67 238.486 278.607 238.084 278.63 237.683C278.612 237.285 278.676 236.887 278.819 236.515C278.963 236.143 279.182 235.805 279.463 235.522C279.743 235.239 280.08 235.017 280.451 234.871C280.822 234.725 281.219 234.657 281.618 234.673C283.694 234.688 284.536 236.031 284.381 238.162ZM283.27 237.228C283.27 237.017 283.227 236.808 283.144 236.615C283.061 236.421 282.939 236.247 282.785 236.102C282.632 235.957 282.451 235.846 282.252 235.774C282.054 235.702 281.844 235.671 281.633 235.684C281.201 235.669 280.779 235.82 280.455 236.108C280.132 236.395 279.932 236.797 279.896 237.228H283.27Z" fill="#FF4000"/>
<path d="M295.768 240.632L293.923 234.564L292.055 240.632H290.696L288.125 232.851H289.5L291.391 239.173L293.267 232.866H294.556L296.448 239.189L298.324 232.866H299.675L297.081 240.648L295.768 240.632Z" fill="#FF4000"/>
<path d="M303.79 239.907C303.545 240.176 303.242 240.386 302.903 240.52C302.564 240.654 302.199 240.708 301.836 240.679C301.577 240.708 301.314 240.682 301.065 240.603C300.816 240.525 300.586 240.395 300.39 240.221C300.194 240.048 300.037 239.836 299.928 239.598C299.82 239.361 299.762 239.103 299.76 238.841C299.76 237.768 300.532 237.081 301.991 237.066H303.782V236.888C303.782 236.116 303.303 235.699 302.369 235.699C301.74 235.717 301.131 235.928 300.624 236.301L300.099 235.414C300.846 234.895 301.738 234.625 302.647 234.642C304.191 234.642 305.025 235.414 305.033 236.718V240.578H303.774L303.79 239.907ZM303.79 238.556V238.008H302.192C301.358 238.008 300.964 238.231 300.964 238.78C300.964 239.328 301.396 239.66 302.107 239.66C303.01 239.675 303.712 239.196 303.782 238.548L303.79 238.556Z" fill="#FF4000"/>
<path d="M308.36 233.028C308.36 233.181 308.315 233.33 308.23 233.457C308.145 233.584 308.024 233.683 307.883 233.741C307.742 233.8 307.587 233.815 307.437 233.785C307.288 233.756 307.15 233.682 307.042 233.574C306.934 233.466 306.861 233.329 306.831 233.179C306.801 233.029 306.816 232.874 306.875 232.733C306.933 232.592 307.032 232.471 307.159 232.386C307.286 232.301 307.435 232.256 307.588 232.256C307.793 232.256 307.989 232.338 308.134 232.482C308.279 232.627 308.36 232.823 308.36 233.028ZM306.986 240.632V234.688H308.252V240.602L306.986 240.632Z" fill="#FF4000"/>
<path d="M313.71 240.254C313.271 240.528 312.767 240.677 312.25 240.686C312.023 240.704 311.794 240.671 311.581 240.59C311.368 240.508 311.176 240.381 311.018 240.216C310.86 240.051 310.74 239.854 310.668 239.638C310.595 239.421 310.571 239.191 310.598 238.965V235.877H309.765V234.92H310.598V233.298H311.888V234.92H313.632V235.877H311.888V238.71C311.888 239.32 312.119 239.482 312.521 239.482C312.832 239.466 313.136 239.379 313.408 239.227L313.71 240.254Z" fill="#FF4000"/>
<path d="M320.619 232.372C319.76 233.829 319.307 235.49 319.307 237.182C319.307 238.873 319.76 240.534 320.619 241.991H319.461C318.58 240.541 318.115 238.878 318.115 237.182C318.115 235.485 318.58 233.822 319.461 232.372H320.619Z" fill="#FF4000"/>
<path d="M325.066 237.552V235.707H326.286V237.552H327.42V238.718H326.286V240.632H325.066V238.718H321.353V237.776L324.008 232.882H325.274L322.758 237.583L325.066 237.552Z" fill="#FF4000"/>
<path d="M329.991 234.032V235.707H331.056C332.747 235.707 333.836 236.703 333.836 238.069C333.836 239.652 332.701 240.679 330.956 240.679C329.969 240.653 329.01 240.345 328.192 239.791L328.71 238.726C329.295 239.232 330.036 239.524 330.809 239.552C331.821 239.552 332.431 239.027 332.431 238.147C332.431 237.266 331.821 236.873 330.825 236.873C330.354 236.873 329.281 236.919 328.779 236.973V232.858H333.504V234.039L329.991 234.032Z" fill="#FF4000"/>
<path d="M339.07 235.143C339.07 236.595 338.298 237.459 337.016 237.459C335.735 237.459 334.963 236.579 334.963 235.143C334.963 233.708 335.735 232.827 337.016 232.827C338.298 232.827 339.07 233.7 339.07 235.143ZM335.812 235.143C335.812 236.139 336.244 236.687 337.016 236.687C337.788 236.687 338.228 236.108 338.228 235.143C338.228 234.178 337.781 233.599 337.016 233.599C336.252 233.599 335.82 234.155 335.82 235.143H335.812ZM342.15 232.827H343.37L337.657 240.609H336.43L342.15 232.827ZM344.922 238.309C344.922 239.76 344.15 240.625 342.868 240.625C341.587 240.625 340.815 239.752 340.815 238.309C340.815 236.865 341.587 235.993 342.868 235.993C344.15 235.993 344.922 236.888 344.922 238.332V238.309ZM341.672 238.309C341.672 239.305 342.104 239.853 342.868 239.853C343.632 239.853 344.08 239.281 344.08 238.309C344.08 237.336 343.632 236.765 342.868 236.765C342.104 236.765 341.672 237.344 341.672 238.332V238.309Z" fill="#FF4000"/>
<path d="M348.056 232.372C348.937 233.822 349.402 235.485 349.402 237.182C349.402 238.878 348.937 240.541 348.056 241.991H346.898C347.757 240.534 348.21 238.873 348.21 237.182C348.21 235.49 347.757 233.829 346.898 232.372H348.056Z" fill="#FF4000"/>
<path d="M265.344 174.966H266.641V182.895H271.543V184.022H265.367L265.344 174.966Z" fill="black"/>
<path d="M272.122 179.49C272.085 178.531 272.336 177.582 272.842 176.766C273.348 175.95 274.086 175.304 274.962 174.91C275.838 174.517 276.812 174.394 277.758 174.558C278.704 174.722 279.579 175.165 280.272 175.83C280.965 176.495 281.443 177.351 281.645 178.29C281.847 179.229 281.765 180.206 281.407 181.097C281.05 181.989 280.434 182.753 279.64 183.292C278.845 183.831 277.907 184.12 276.947 184.122C276.323 184.148 275.7 184.047 275.115 183.826C274.531 183.605 273.997 183.268 273.546 182.835C273.096 182.403 272.737 181.883 272.492 181.308C272.248 180.733 272.122 180.115 272.122 179.49ZM280.452 179.49C280.46 178.791 280.259 178.106 279.877 177.522C279.494 176.938 278.946 176.481 278.302 176.209C277.659 175.937 276.949 175.862 276.263 175.995C275.577 176.128 274.947 176.462 274.451 176.954C273.955 177.446 273.618 178.075 273.48 178.76C273.343 179.445 273.413 180.155 273.68 180.8C273.948 181.445 274.402 181.996 274.983 182.383C275.565 182.77 276.249 182.975 276.947 182.972C277.41 182.987 277.87 182.907 278.3 182.737C278.731 182.568 279.122 182.312 279.45 181.987C279.778 181.661 280.037 181.271 280.209 180.842C280.381 180.412 280.464 179.952 280.452 179.49Z" fill="black"/>
<path d="M289.369 181.752H284.551L283.555 184.022H282.228L286.327 174.966H287.608L291.723 184.022H290.364L289.369 181.752ZM288.913 180.717L286.96 176.286L285.007 180.717H288.913Z" fill="black"/>
<path d="M293.066 174.966H296.88C299.791 174.966 301.767 176.803 301.767 179.49C301.767 182.177 299.791 184.022 296.88 184.022H293.066V174.966ZM296.803 182.895C299.042 182.895 300.478 181.52 300.478 179.49C300.478 177.46 299.042 176.093 296.803 176.093H294.356V182.895H296.803Z" fill="black"/>
<path d="M303.751 174.966H305.04V184.022H303.751V174.966Z" fill="black"/>
<path d="M315.547 174.966V184.022H314.482L309.078 177.267V184.022H307.781V174.966H308.8L314.204 181.713V174.966H315.547Z" fill="black"/>
<path d="M324.533 179.444H325.784V182.964C324.81 183.734 323.598 184.141 322.356 184.114C321.128 184.114 319.949 183.626 319.081 182.758C318.212 181.889 317.724 180.711 317.724 179.482C317.724 178.254 318.212 177.076 319.081 176.207C319.949 175.338 321.128 174.85 322.356 174.85C323.003 174.822 323.648 174.931 324.248 175.172C324.849 175.413 325.391 175.78 325.838 176.248L325.066 177.02C324.722 176.677 324.312 176.408 323.86 176.229C323.409 176.05 322.926 175.964 322.441 175.977C321.965 175.946 321.488 176.012 321.039 176.172C320.59 176.332 320.179 176.583 319.831 176.909C319.483 177.235 319.205 177.628 319.015 178.066C318.826 178.503 318.728 178.975 318.728 179.451C318.728 179.928 318.826 180.4 319.015 180.837C319.205 181.275 319.483 181.668 319.831 181.994C320.179 182.32 320.59 182.57 321.039 182.731C321.488 182.891 321.965 182.957 322.441 182.925C323.19 182.942 323.928 182.741 324.564 182.346L324.533 179.444Z" fill="black"/>
<path d="M327.613 183.203C327.611 183.087 327.633 182.972 327.676 182.864C327.72 182.756 327.784 182.659 327.867 182.576C327.949 182.494 328.047 182.429 328.154 182.386C328.262 182.343 328.377 182.321 328.494 182.323C328.608 182.323 328.721 182.346 328.826 182.391C328.931 182.435 329.026 182.501 329.105 182.583C329.184 182.665 329.246 182.762 329.287 182.869C329.328 182.975 329.347 183.089 329.343 183.203C329.347 183.318 329.328 183.433 329.287 183.54C329.247 183.648 329.185 183.746 329.106 183.829C329.027 183.913 328.932 183.979 328.827 184.026C328.722 184.072 328.608 184.097 328.494 184.099C328.377 184.099 328.261 184.076 328.153 184.03C328.045 183.985 327.948 183.919 327.866 183.836C327.784 183.752 327.719 183.653 327.676 183.545C327.633 183.436 327.611 183.32 327.613 183.203Z" fill="black"/>
<path d="M330.547 183.203C330.545 183.087 330.566 182.972 330.61 182.864C330.653 182.756 330.718 182.659 330.8 182.576C330.882 182.494 330.98 182.429 331.088 182.386C331.196 182.343 331.311 182.321 331.427 182.323C331.542 182.323 331.655 182.346 331.76 182.391C331.866 182.435 331.961 182.5 332.041 182.582C332.121 182.664 332.184 182.762 332.226 182.868C332.267 182.975 332.287 183.089 332.284 183.203C332.287 183.319 332.267 183.433 332.226 183.541C332.184 183.648 332.122 183.746 332.042 183.83C331.963 183.913 331.867 183.98 331.762 184.026C331.656 184.072 331.542 184.097 331.427 184.099C331.31 184.099 331.194 184.076 331.087 184.03C330.979 183.985 330.881 183.919 330.799 183.836C330.717 183.752 330.653 183.653 330.61 183.545C330.566 183.436 330.545 183.32 330.547 183.203Z" fill="black"/>
<path d="M333.504 183.203C333.502 183.087 333.523 182.972 333.567 182.864C333.61 182.756 333.675 182.659 333.757 182.576C333.839 182.494 333.937 182.429 334.045 182.386C334.153 182.343 334.268 182.321 334.384 182.323C334.499 182.322 334.613 182.344 334.719 182.388C334.825 182.433 334.921 182.498 335.001 182.58C335.081 182.662 335.144 182.76 335.185 182.867C335.226 182.974 335.245 183.089 335.241 183.203C335.245 183.319 335.226 183.434 335.185 183.542C335.144 183.65 335.082 183.749 335.002 183.832C334.922 183.916 334.826 183.982 334.72 184.028C334.614 184.074 334.5 184.098 334.384 184.099C334.267 184.099 334.152 184.076 334.044 184.03C333.936 183.985 333.838 183.919 333.756 183.836C333.674 183.752 333.61 183.653 333.567 183.545C333.523 183.436 333.502 183.32 333.504 183.203Z" fill="black"/>
<path d="M236.263 330.825L265.259 330.516L262.966 320.141L237.05 318.218L236.263 330.825Z" fill="#B78876"/>
<path d="M250.9 317.871L264.333 318.751C264.333 318.751 269.737 305.395 272.238 305.318L271.466 331.42L250.483 330.902L250.9 317.871Z" fill="#FF4000"/>
<path d="M262.959 326.788C263.028 327.041 263.188 327.26 263.409 327.403C263.63 327.545 263.896 327.601 264.155 327.56C264.41 327.5 264.632 327.346 264.776 327.127C264.919 326.909 264.974 326.643 264.927 326.386C264.848 326.124 264.675 325.901 264.442 325.758C264.208 325.616 263.93 325.565 263.661 325.614C263.4 325.703 263.184 325.889 263.059 326.134C262.934 326.379 262.909 326.663 262.99 326.927" fill="#E0E0E0"/>
<path d="M271.459 331.42L269.343 331.288L270.887 306.306C270.887 306.306 271.428 305.164 272.246 305.318L271.459 331.42Z" fill="#E0E0E0"/>
<path d="M264.209 318.326C264.341 318.326 264.379 318.967 264.765 319.608C265.151 320.249 265.684 320.596 265.63 320.712C265.576 320.828 264.858 320.619 264.387 319.84C263.916 319.06 264.094 318.296 264.209 318.326Z" fill="#263238"/>
<path d="M265.421 315.617C265.545 315.617 265.746 316.149 266.271 316.597C266.795 317.045 267.367 317.192 267.359 317.315C267.351 317.439 266.626 317.508 265.985 316.937C265.344 316.366 265.306 315.617 265.421 315.617Z" fill="#263238"/>
<path d="M268.749 314.158C268.749 314.281 268.131 314.436 267.436 314.088C266.741 313.741 266.494 313.139 266.602 313.085C266.711 313.031 267.066 313.417 267.637 313.694C268.208 313.972 268.741 314.034 268.749 314.158Z" fill="#263238"/>
<path d="M261.129 318.465C261.237 318.519 261.044 319.098 261.075 319.816C261.106 320.534 261.314 321.113 261.198 321.175C261.082 321.237 260.65 320.681 260.635 319.832C260.619 318.983 261.028 318.396 261.129 318.465Z" fill="#263238"/>
<path d="M258.412 318.334C258.515 318.765 258.499 319.216 258.365 319.639C258.271 320.109 258.118 320.566 257.91 320.998C257.782 321.262 257.641 321.52 257.485 321.77C257.401 321.912 257.294 322.04 257.169 322.148C257.076 322.229 256.959 322.276 256.836 322.283C256.713 322.29 256.591 322.256 256.489 322.187C256.402 322.121 256.331 322.036 256.283 321.938C256.235 321.84 256.21 321.732 256.211 321.623C256.216 321.458 256.245 321.294 256.296 321.137C256.373 320.87 256.473 320.612 256.597 320.365C256.808 319.927 257.087 319.526 257.424 319.176C258.003 318.589 258.489 318.404 258.512 318.442C258.535 318.481 258.141 318.782 257.663 319.384C257.382 319.736 257.148 320.122 256.968 320.534C256.863 320.785 256.778 321.043 256.713 321.306C256.636 321.584 256.628 321.816 256.713 321.893C256.798 321.97 256.783 321.893 256.86 321.893C256.951 321.808 257.031 321.712 257.099 321.608C257.25 321.39 257.386 321.163 257.508 320.928C257.722 320.529 257.898 320.11 258.033 319.678C258.125 319.221 258.251 318.772 258.412 318.334Z" fill="#263238"/>
<path d="M258.62 318.504C258.24 318.742 257.793 318.851 257.346 318.813C256.863 318.821 256.382 318.745 255.926 318.589C255.656 318.499 255.397 318.38 255.154 318.234C254.983 318.16 254.835 318.042 254.724 317.893C254.613 317.745 254.543 317.569 254.521 317.385C254.527 317.268 254.566 317.156 254.633 317.061C254.699 316.965 254.792 316.89 254.899 316.844C255.055 316.783 255.218 316.744 255.385 316.728C255.777 316.68 256.176 316.71 256.556 316.818C256.936 316.925 257.292 317.107 257.601 317.354C258.257 317.879 258.373 318.419 258.373 318.427C258.373 318.435 258.079 318.018 257.439 317.609C257.07 317.369 256.654 317.214 256.219 317.153C255.963 317.116 255.703 317.116 255.447 317.153C255.161 317.153 254.937 317.277 254.961 317.385C254.984 317.493 255.161 317.74 255.377 317.856C255.6 317.992 255.835 318.106 256.08 318.195C256.496 318.354 256.933 318.453 257.377 318.489C258.095 318.558 258.574 318.435 258.62 318.504Z" fill="#263238"/>
<path d="M55.9854 322.696L53.7698 331.188L28.9114 330.964C28.9114 330.964 32.3159 328.393 44.7991 328.579L46.0112 322.696H55.9854Z" fill="#B78876"/>
<path d="M81.4306 207.668C80.6962 206.27 80.099 204.804 79.6473 203.291C79.1941 201.78 79.1941 200.169 79.6473 198.659C79.892 197.904 80.3164 197.221 80.8839 196.667C81.4514 196.112 82.145 195.705 82.9051 195.478C83.847 195.247 84.8737 195.355 85.7693 194.969C86.8115 194.529 87.4677 193.517 88.2474 192.707C89.4923 191.431 91.1178 190.594 92.8794 190.321C93.7902 190.142 94.7332 190.228 95.5968 190.568C96.0266 190.745 96.4049 191.027 96.6964 191.388C96.9879 191.75 97.1833 192.18 97.2643 192.637C98.3063 192.175 99.4041 191.851 100.53 191.672C101.667 191.5 102.827 191.777 103.765 192.444C104.218 192.791 104.549 193.274 104.709 193.823C104.869 194.372 104.849 194.957 104.652 195.494C105.122 195.23 105.673 195.15 106.198 195.27C106.723 195.39 107.185 195.701 107.493 196.142C107.786 196.594 107.942 197.121 107.942 197.659C107.942 198.197 107.786 198.724 107.493 199.176C106.746 200.168 105.671 200.863 104.459 201.137C103.372 201.405 102.239 201.431 101.14 201.214" fill="#263238"/>
<path d="M93.713 241.188C95.8551 240.925 97.8062 239.825 99.1399 238.129C100.474 236.432 101.081 234.276 100.831 232.133C100.537 229.639 100.283 227.562 100.283 227.562C100.283 227.562 106.567 226.25 106.32 219.912C106.073 213.574 104.243 199.068 104.243 199.068C100.563 197.702 96.585 197.344 92.72 198.029C88.855 198.715 85.2429 200.419 82.2565 202.967L81.3533 203.739L84.588 233.916C84.6989 234.997 85.0245 236.045 85.5455 236.998C86.0666 237.952 86.7727 238.792 87.6225 239.469C88.4723 240.147 89.4487 240.647 90.4945 240.943C91.5403 241.238 92.6345 241.321 93.713 241.188Z" fill="#B78876"/>
<path d="M100.283 227.47C97.3613 227.671 94.4459 226.999 91.9067 225.54C91.9067 225.54 94.0915 230.002 100.399 229.106L100.283 227.47Z" fill="#AA6550"/>
<path d="M82.4728 210.277C82.357 210.239 78.0492 209.212 78.4121 213.535C78.7749 217.858 83.0441 216.623 83.0441 216.484C83.0441 216.345 82.4728 210.277 82.4728 210.277Z" fill="#B78876"/>
<path d="M81.5771 214.956C81.5771 214.956 81.5076 215.017 81.3841 215.087C81.2099 215.176 81.0085 215.195 80.8205 215.141C80.526 214.988 80.2776 214.76 80.1011 214.479C79.9246 214.198 79.8265 213.875 79.8169 213.543C79.777 213.173 79.8192 212.799 79.9405 212.447C79.9702 212.309 80.0327 212.18 80.1227 212.071C80.2127 211.962 80.3276 211.876 80.4577 211.821C80.5427 211.793 80.635 211.794 80.7192 211.825C80.8034 211.856 80.8746 211.914 80.9209 211.991C80.9904 212.107 80.9672 212.192 80.9904 212.2C81.0135 212.207 81.083 212.122 80.9904 211.945C80.9589 211.839 80.8904 211.749 80.7974 211.69C80.7353 211.65 80.6658 211.622 80.5929 211.609C80.52 211.595 80.4451 211.597 80.3728 211.613C80.1907 211.656 80.0234 211.747 79.8877 211.875C79.7521 212.004 79.6531 212.167 79.6008 212.346C79.4508 212.737 79.3952 213.158 79.4387 213.574C79.4496 213.961 79.575 214.336 79.7989 214.652C80.0228 214.968 80.3354 215.211 80.697 215.349C80.8156 215.377 80.939 215.375 81.0571 215.346C81.1751 215.316 81.2845 215.259 81.3764 215.18C81.5771 215.064 81.5925 214.963 81.5771 214.956Z" fill="#AA6550"/>
<path d="M102.784 209.536C102.795 209.771 102.716 210.001 102.562 210.18C102.408 210.358 102.192 210.47 101.958 210.493C101.843 210.507 101.727 210.499 101.616 210.467C101.505 210.436 101.401 210.383 101.31 210.311C101.22 210.239 101.144 210.15 101.089 210.049C101.033 209.948 100.998 209.836 100.985 209.721C100.97 209.486 101.048 209.253 101.203 209.074C101.357 208.895 101.576 208.784 101.811 208.764C101.926 208.749 102.043 208.757 102.154 208.788C102.266 208.819 102.37 208.872 102.461 208.944C102.552 209.016 102.627 209.106 102.683 209.207C102.738 209.309 102.773 209.421 102.784 209.536Z" fill="#263238"/>
<path d="M103.494 208.054C103.394 208.178 102.676 207.707 101.703 207.761C100.731 207.815 100.043 208.332 99.9353 208.216C99.8273 208.1 99.9817 207.954 100.283 207.707C100.689 207.393 101.183 207.213 101.696 207.189C102.2 207.163 102.701 207.299 103.124 207.575C103.448 207.792 103.548 208 103.494 208.054Z" fill="#263238"/>
<path d="M93.5125 209.984C93.5236 210.219 93.444 210.449 93.2904 210.627C93.1367 210.805 92.9205 210.918 92.6865 210.941C92.5718 210.955 92.4555 210.946 92.3443 210.915C92.2331 210.884 92.1292 210.83 92.0387 210.759C91.9482 210.687 91.8729 210.598 91.8171 210.497C91.7613 210.395 91.7262 210.284 91.7137 210.169C91.6967 209.933 91.7741 209.699 91.9289 209.52C92.0838 209.34 92.3034 209.23 92.5398 209.212C92.6545 209.198 92.7708 209.207 92.882 209.238C92.9932 209.27 93.097 209.323 93.1875 209.395C93.278 209.466 93.3533 209.556 93.4091 209.657C93.4649 209.758 93.5 209.869 93.5125 209.984Z" fill="#263238"/>
<path d="M93.937 208.726C93.829 208.849 93.1187 208.371 92.146 208.425C91.1733 208.479 90.4785 209.004 90.3704 208.888C90.2623 208.772 90.4167 208.618 90.7178 208.378C91.1235 208.063 91.6173 207.882 92.1306 207.861C92.6383 207.831 93.1421 207.967 93.5665 208.247C93.8753 208.44 93.9911 208.664 93.937 208.726Z" fill="#263238"/>
<path d="M97.8357 215.766C98.3319 215.576 98.851 215.451 99.3796 215.396C99.6267 215.357 99.8583 215.295 99.8892 215.126C99.9032 214.868 99.8327 214.613 99.6885 214.4C99.426 213.805 99.1481 213.188 98.8547 212.539C98.0903 210.973 97.4551 209.346 96.9556 207.676C97.8532 209.178 98.6277 210.75 99.2716 212.377L100.044 214.245C100.215 214.539 100.278 214.883 100.221 215.218C100.191 215.307 100.14 215.387 100.073 215.453C100.006 215.519 99.9245 215.568 99.8351 215.596C99.7006 215.643 99.5604 215.672 99.4182 215.681C98.896 215.773 98.3647 215.801 97.8357 215.766Z" fill="#263238"/>
<path d="M95.0021 216.585C95.1643 216.585 95.2183 217.619 96.1601 218.329C97.102 219.04 98.2214 218.854 98.2368 219.001C98.2523 219.148 97.9975 219.225 97.5189 219.256C96.9009 219.301 96.2873 219.123 95.7896 218.754C95.3111 218.399 94.9876 217.874 94.8863 217.287C94.8246 216.847 94.9558 216.577 95.0021 216.585Z" fill="#263238"/>
<path d="M103.054 206.356C102.892 206.587 102.213 206.394 101.402 206.425C100.591 206.456 99.9199 206.649 99.75 206.425C99.6728 206.317 99.75 206.085 100.059 205.862C100.444 205.586 100.905 205.437 101.379 205.437C101.856 205.417 102.326 205.549 102.722 205.815C103.016 206.024 103.124 206.247 103.054 206.356Z" fill="#263238"/>
<path d="M92.4931 205.267C92.385 205.391 92.138 205.36 91.806 205.306C91.4052 205.242 90.9999 205.211 90.594 205.213C90.1893 205.225 89.7864 205.271 89.3897 205.352C89.0655 205.414 88.8184 205.452 88.7103 205.352C88.6023 205.252 88.7103 204.958 89.0114 204.657C89.4447 204.295 89.9908 204.096 90.5554 204.094C91.1129 204.084 91.6573 204.263 92.0994 204.603C92.5009 204.873 92.5858 205.151 92.4931 205.267Z" fill="#263238"/>
<path d="M104.66 201.013C101.65 201.994 98.4061 201.994 95.3959 201.013C92.0531 199.933 88.3167 199.724 87.6064 200.473C86.8962 201.222 87.2281 204.449 84.2868 205.877C84.2868 205.877 85.4371 211.96 82.9667 212.115C80.4963 212.269 80.5735 202.565 80.5735 202.565L86.0933 198.744L92.4083 196.528L98.4993 195.594L104.436 196.474L104.66 201.013Z" fill="#263238"/>
<path d="M113.963 240.501L132.985 258.303L163.093 237.753L172.496 248.561L143.577 271.721C140.675 274.308 136.969 275.814 133.085 275.982C130.459 276.096 127.843 275.593 125.446 274.514C123.049 273.435 120.938 271.809 119.282 269.768L109.091 261.168L113.963 240.501Z" fill="#FF4000"/>
<path d="M96.2914 232.851L113.963 240.501L113.376 245.396L121.598 278.005L130.537 284.528L123.134 295.406C121.467 297.845 119.288 299.892 116.749 301.404L99.1247 311.888C97.4706 312.492 95.6491 312.445 94.0283 311.757C92.4075 311.069 91.1083 309.791 90.3934 308.182L74.8067 272.817L59.1428 321.399C58.6523 322.923 57.6383 324.224 56.2804 325.072C54.9225 325.92 53.3083 326.259 51.7239 326.031L45.5479 325.128C45.0504 325.055 44.5738 324.878 44.149 324.609C43.7242 324.34 43.3606 323.985 43.0818 323.566C42.8031 323.148 42.6154 322.675 42.5308 322.18C42.4463 321.684 42.4668 321.176 42.5911 320.689L60.1078 252.583C61.0295 249.045 62.5322 245.685 64.5545 242.64C66.4375 239.831 68.9669 237.516 71.9303 235.887C74.8937 234.259 78.2046 233.366 81.5848 233.283L96.2914 232.851Z" fill="#FF4000"/>
<path d="M102.483 233.36L101.827 229.817L83.0981 228.558V233.267C83.2294 234.611 85.4141 234.209 87.4522 235.051L96.6236 236.88C98.8624 237.058 103.633 236.232 102.483 233.36Z" fill="#FF4000"/>
<path d="M121.783 278.159C121.589 277.758 121.426 277.343 121.297 276.916C121.011 276.144 120.617 274.94 120.146 273.473C119.212 270.555 118.008 266.525 116.85 261.97C115.692 257.416 114.781 253.293 114.194 250.29C113.901 248.785 113.685 247.565 113.546 246.716C113.449 246.282 113.393 245.84 113.376 245.396C113.514 245.817 113.623 246.248 113.7 246.685C113.901 247.588 114.163 248.785 114.472 250.228C115.128 253.224 116.078 257.346 117.236 261.87C118.394 266.394 119.552 270.455 120.424 273.396C120.841 274.817 121.196 275.982 121.451 276.87C121.593 277.291 121.704 277.722 121.783 278.159Z" fill="#263238"/>
<path d="M80.4656 256.705C80.2738 257.535 80.0156 258.349 79.6936 259.137C79.1377 260.728 78.4429 262.727 77.6709 264.927C76.8989 267.127 76.2041 269.127 75.6483 270.717C75.4052 271.531 75.1086 272.328 74.7605 273.103C74.8886 272.262 75.0954 271.435 75.3781 270.632C75.8259 269.088 76.4975 267.058 77.2927 264.796C78.0878 262.534 78.8367 260.504 79.4234 259.037C79.7043 258.232 80.053 257.452 80.4656 256.705Z" fill="#263238"/>
<g opacity="0.2">
<path d="M74.7451 272.894C76.2531 276.306 77.7533 279.719 79.2459 283.131C79.4551 283.694 79.7608 284.217 80.1491 284.675C80.3473 284.905 80.6008 285.081 80.8857 285.187C81.1707 285.292 81.4777 285.323 81.778 285.277C82.8897 285.022 83.1676 283.594 83.2062 282.459C83.4687 274.994 83.2062 267.351 80.6046 260.342C80.4193 259.832 80.0719 259.23 79.5315 259.299C78.9911 259.369 78.8213 259.917 78.69 260.38L75.0308 273.504" fill="black"/>
</g>
<g opacity="0.2">
<path d="M123.343 273.597C123.641 273.411 123.885 273.148 124.046 272.835C124.208 272.523 124.282 272.172 124.261 271.821C124.208 271.12 124.019 270.436 123.705 269.806C121.661 265.034 118.91 260.597 115.545 256.644L119.243 269.768L123.343 273.597Z" fill="black"/>
</g>
<path d="M64.9021 267.714C64.8558 267.714 65.0411 263.252 65.319 257.748C65.5969 252.243 65.844 247.789 65.8903 247.789C65.9366 247.789 65.7513 252.259 65.4811 257.755C65.2109 263.252 64.9484 267.722 64.9021 267.714Z" fill="#E0E0E0"/>
<path d="M68.376 252.243C68.4121 252.361 68.4278 252.483 68.4223 252.606C68.4413 252.943 68.4413 253.281 68.4223 253.617C68.302 255.86 67.5323 258.019 66.2067 259.832C66.0091 260.102 65.7952 260.36 65.5659 260.604C65.4877 260.698 65.3997 260.783 65.3035 260.859C65.3035 260.859 65.6354 260.45 66.0755 259.755C67.331 257.921 68.0891 255.793 68.2757 253.579C68.376 252.768 68.3529 252.243 68.376 252.243Z" fill="#E0E0E0"/>
<path d="M62.0609 252.861C62.0609 252.861 62.1304 253.324 62.2694 254.05C62.4616 255.003 62.7567 255.932 63.1495 256.821C63.5482 257.703 64.0454 258.537 64.6317 259.307C65.0872 259.902 65.4037 260.233 65.4037 260.257C65.3132 260.194 65.2303 260.122 65.1567 260.04C64.9455 259.831 64.747 259.609 64.5622 259.377C63.9405 258.617 63.4214 257.778 63.0182 256.883C62.6136 255.988 62.3306 255.043 62.1767 254.073C62.1254 253.782 62.0919 253.488 62.0764 253.193C62.0611 253.083 62.0559 252.972 62.0609 252.861Z" fill="#E0E0E0"/>
<path d="M67.5808 249.603C67.5926 249.7 67.5926 249.799 67.5808 249.896C67.5969 250.153 67.5969 250.411 67.5808 250.668C67.5047 251.532 67.3391 252.386 67.0868 253.216C66.8382 254.052 66.5018 254.859 66.0832 255.625C65.963 255.859 65.8289 256.086 65.6817 256.304C65.6327 256.388 65.573 256.466 65.5042 256.536C65.5042 256.536 65.6894 256.165 65.9828 255.571C66.3623 254.813 66.6799 254.025 66.9323 253.216C67.1725 252.387 67.348 251.54 67.4573 250.684C67.4793 250.322 67.5205 249.961 67.5808 249.603Z" fill="#E0E0E0"/>
<path d="M63.5047 250.128C63.5047 250.128 63.5047 250.599 63.5047 251.363C63.5283 252.351 63.6525 253.334 63.8752 254.297C64.1066 255.253 64.4324 256.184 64.8479 257.076C65.1722 257.763 65.4115 258.172 65.3883 258.188C65.3162 258.103 65.2516 258.013 65.1953 257.917C65.0795 257.732 64.9251 257.47 64.7476 257.145C64.2996 256.252 63.9576 255.309 63.7285 254.335C63.5042 253.363 63.3928 252.369 63.3966 251.371C63.3974 251.069 63.4154 250.767 63.4506 250.468C63.4504 250.352 63.4686 250.238 63.5047 250.128Z" fill="#E0E0E0"/>
<path d="M64.794 248.669C64.794 248.669 64.7245 248.947 64.6705 249.395C64.6102 249.975 64.6414 250.561 64.7631 251.132C65.0797 252.467 65.5351 253.502 65.5351 253.525C65.4034 253.315 65.2923 253.092 65.2032 252.861C64.9597 252.315 64.7709 251.746 64.6396 251.162C64.5066 250.574 64.4908 249.966 64.5933 249.371C64.6121 249.126 64.6804 248.887 64.794 248.669Z" fill="#E0E0E0"/>
<path d="M62.4163 258.79C62.4626 258.79 62.9103 259.631 63.6515 260.558C64.3926 261.484 65.1337 262.102 65.1028 262.163C64.9129 262.063 64.7386 261.936 64.5856 261.785C63.8209 261.097 63.1741 260.289 62.671 259.392C62.5568 259.205 62.4709 259.002 62.4163 258.79Z" fill="#E0E0E0"/>
<path d="M68.4532 259.817C68.3486 260.034 68.2163 260.236 68.0594 260.419C67.7077 260.883 67.3288 261.327 66.9246 261.747C66.5163 262.166 66.0804 262.558 65.6199 262.92C65.4406 263.081 65.2438 263.22 65.0332 263.337C65.1863 263.151 65.3598 262.983 65.5504 262.835C65.8747 262.534 66.3224 262.117 66.7934 261.631C67.2643 261.144 67.6657 260.689 67.9591 260.349C68.1059 260.156 68.2713 259.977 68.4532 259.817Z" fill="#E0E0E0"/>
<path d="M51.7935 317.624C51.7472 317.624 51.9324 313.162 52.2104 307.657C52.4883 302.153 52.7353 297.699 52.7816 297.699C52.828 297.699 52.6427 302.161 52.3648 307.665C52.0868 313.169 51.8398 317.624 51.7935 317.624Z" fill="#E0E0E0"/>
<path d="M55.2676 302.145C55.2835 302.268 55.2835 302.393 55.2676 302.516C55.2912 302.853 55.2912 303.191 55.2676 303.527C55.1473 305.77 54.3775 307.929 53.0519 309.742C52.8549 310.012 52.6409 310.27 52.4112 310.514C52.3341 310.611 52.246 310.699 52.1487 310.776C52.1487 310.776 52.4806 310.367 52.9593 309.665C53.5824 308.755 54.0858 307.769 54.457 306.731C54.8262 305.692 55.0622 304.61 55.1595 303.512C55.2676 302.678 55.2367 302.145 55.2676 302.145Z" fill="#E0E0E0"/>
<path d="M48.9525 302.771C48.9525 302.771 49.022 303.226 49.1609 303.96C49.5366 305.869 50.3447 307.668 51.5233 309.217C51.9787 309.811 52.2953 310.143 52.2953 310.159C52.2029 310.099 52.1197 310.026 52.0482 309.943C51.8349 309.738 51.6363 309.519 51.4538 309.286C50.204 307.76 49.3809 305.93 49.0683 303.983C49.0169 303.689 48.9834 303.393 48.9679 303.095C48.9527 302.987 48.9476 302.879 48.9525 302.771Z" fill="#E0E0E0"/>
<path d="M54.4646 299.536C54.4646 299.536 54.4646 299.636 54.4646 299.822C54.4646 300.007 54.4646 300.277 54.4646 300.594C54.3255 302.337 53.8204 304.031 52.9823 305.565C52.8202 305.859 52.6812 306.09 52.5809 306.245C52.5291 306.327 52.4697 306.405 52.4033 306.476C52.4033 306.476 52.5886 306.106 52.882 305.511C53.262 304.738 53.5795 303.935 53.8315 303.11C54.074 302.285 54.247 301.44 54.3488 300.586C54.426 299.922 54.4414 299.536 54.4646 299.536Z" fill="#E0E0E0"/>
<path d="M50.3961 300.046C50.3961 300.046 50.3961 300.516 50.3961 301.273C50.4193 302.261 50.5435 303.244 50.7666 304.207C50.9922 305.17 51.3128 306.109 51.7239 307.009C52.0482 307.696 52.2875 308.097 52.2643 308.113C52.2411 308.128 52.1871 308.028 52.0713 307.843C51.9052 307.596 51.7556 307.338 51.6236 307.071C51.1722 306.178 50.8301 305.235 50.6045 304.261C50.3767 303.287 50.2652 302.289 50.2726 301.288C50.2739 300.987 50.2919 300.685 50.3266 300.385C50.3309 300.269 50.3544 300.154 50.3961 300.046Z" fill="#E0E0E0"/>
<path d="M51.7239 298.579C51.7239 298.579 51.6544 298.849 51.6004 299.297C51.5364 299.879 51.5677 300.469 51.693 301.041C52.0018 302.377 52.465 303.404 52.465 303.427C52.3282 303.222 52.2167 303.002 52.133 302.771C51.8908 302.224 51.7021 301.655 51.5695 301.072C51.4383 300.484 51.42 299.876 51.5154 299.281C51.5344 299.035 51.6055 298.796 51.7239 298.579Z" fill="#E0E0E0"/>
<path d="M49.3076 308.692C49.3462 308.692 49.8017 309.533 50.5428 310.468C51.2839 311.402 52.0251 312.011 51.9942 312.073C51.8031 311.972 51.6287 311.842 51.4769 311.687C51.0932 311.345 50.7393 310.97 50.4193 310.568C50.0954 310.165 49.8086 309.733 49.5624 309.279C49.4441 309.099 49.3579 308.901 49.3076 308.692Z" fill="#E0E0E0"/>
<path d="M55.3446 309.719C55.2378 309.937 55.1056 310.141 54.9509 310.329C54.5984 310.79 54.2195 311.231 53.816 311.649C53.4046 312.073 52.9634 312.468 52.4959 312.83C52.3207 312.993 52.1231 313.131 51.9092 313.239C52.064 313.057 52.2373 312.891 52.4264 312.745C52.7507 312.444 53.1984 312.027 53.6693 311.541C54.1403 311.054 54.5417 310.591 54.8273 310.259C54.9816 310.062 55.1548 309.881 55.3446 309.719Z" fill="#E0E0E0"/>
<path d="M80.3574 253.602C80.3111 253.602 80.4964 249.14 80.7666 243.635C81.0368 238.131 81.2993 233.677 81.3456 233.677C81.3919 233.677 81.1989 238.139 80.9287 243.643C80.6585 249.148 80.4038 253.602 80.3574 253.602Z" fill="#E0E0E0"/>
<path d="M83.8315 238.123C83.8425 238.247 83.8425 238.371 83.8315 238.494C83.8551 238.831 83.8551 239.169 83.8315 239.505C83.7112 241.748 82.9414 243.907 81.6159 245.72C81.4165 245.989 81.2026 246.246 80.9751 246.492C80.898 246.589 80.8099 246.677 80.7126 246.754C80.7126 246.754 81.0446 246.345 81.5232 245.643C82.7805 243.811 83.5364 241.681 83.7157 239.467C83.8238 238.648 83.8006 238.123 83.8315 238.123Z" fill="#E0E0E0"/>
<path d="M77.5164 238.749C77.5164 238.749 77.5782 239.204 77.7248 239.938C77.9094 240.889 78.2021 241.816 78.5972 242.701C79.0001 243.585 79.4998 244.421 80.0872 245.195C80.5426 245.782 80.8592 246.121 80.8592 246.137C80.7704 246.075 80.69 246.003 80.6198 245.921C80.4075 245.713 80.2065 245.494 80.0177 245.264C79.396 244.504 78.8769 243.666 78.4737 242.771C78.0716 241.874 77.7862 240.93 77.6245 239.961C77.5705 239.582 77.5396 239.281 77.5318 239.073C77.5066 238.967 77.5014 238.857 77.5164 238.749Z" fill="#E0E0E0"/>
<path d="M83.0285 235.46C83.0285 235.46 83.0285 235.56 83.0285 235.746C83.0285 235.931 83.0285 236.201 83.0285 236.518C82.9543 237.386 82.7913 238.245 82.5421 239.081C82.298 239.917 81.9641 240.725 81.5463 241.489C81.3841 241.783 81.2452 242.014 81.1371 242.169C81.029 242.323 80.975 242.4 80.9673 242.393C80.9595 242.385 81.1525 242.03 81.4459 241.435C81.8263 240.663 82.1413 239.859 82.3877 239.034C82.636 238.21 82.8116 237.365 82.9127 236.51C82.9899 235.9 83.0053 235.46 83.0285 235.46Z" fill="#E0E0E0"/>
<path d="M78.9525 236.016C78.9525 236.016 78.9525 236.494 78.9525 237.251C78.9761 238.239 79.1003 239.222 79.3231 240.185C79.5475 241.147 79.8708 242.083 80.2881 242.979C80.6046 243.674 80.8516 244.075 80.8207 244.091C80.7462 244.009 80.6814 243.918 80.6277 243.821C80.4674 243.571 80.3206 243.314 80.1877 243.049C79.733 242.158 79.3907 241.214 79.1687 240.239C78.937 239.265 78.8255 238.267 78.8367 237.266C78.8367 236.888 78.8367 236.579 78.883 236.363C78.8977 236.246 78.9209 236.13 78.9525 236.016Z" fill="#E0E0E0"/>
<path d="M80.2881 234.557C80.2881 234.557 80.2186 234.827 80.1646 235.275C80.1006 235.857 80.1319 236.447 80.2572 237.019C80.566 238.355 81.0292 239.382 81.0292 239.405C80.8887 239.203 80.777 238.982 80.6973 238.749C80.4527 238.203 80.2639 237.634 80.1337 237.05C80.0025 236.462 79.9842 235.854 80.0797 235.259C80.0986 235.013 80.1697 234.774 80.2881 234.557Z" fill="#E0E0E0"/>
<path d="M77.8716 244.67C77.8716 244.67 78.3579 245.511 79.1068 246.446C79.8556 247.38 80.589 247.99 80.5581 248.051C80.3671 247.95 80.1926 247.82 80.0409 247.665C79.2702 246.977 78.6227 246.163 78.1263 245.257C78.0094 245.077 77.9233 244.878 77.8716 244.67Z" fill="#E0E0E0"/>
<path d="M83.9086 245.697C83.8018 245.915 83.6696 246.119 83.5149 246.307C83.1624 246.768 82.7835 247.209 82.38 247.627C81.9748 248.046 81.5443 248.441 81.0908 248.808C80.9127 248.971 80.7126 249.109 80.4963 249.217C80.6562 249.035 80.8319 248.867 81.0213 248.715C81.3455 248.422 81.7933 248.005 82.2642 247.519C82.7351 247.032 83.1366 246.569 83.4222 246.229C83.5652 246.035 83.7282 245.857 83.9086 245.697Z" fill="#E0E0E0"/>
<path d="M97.0945 250.02C97.0482 250.02 97.2335 245.55 97.5037 240.053C97.7739 234.557 98.0363 230.095 98.0749 230.095C98.1135 230.095 97.936 234.557 97.6658 240.061C97.3956 245.565 97.1331 250.02 97.0945 250.02Z" fill="#E0E0E0"/>
<path d="M100.569 234.541C100.58 234.665 100.58 234.789 100.569 234.912C100.569 235.151 100.569 235.499 100.569 235.923C100.43 238.15 99.6614 240.292 98.3529 242.099C98.1535 242.368 97.9396 242.626 97.7121 242.871C97.55 243.049 97.4573 243.141 97.4419 243.134C97.4265 243.126 97.7739 242.725 98.2602 242.022C99.5175 240.19 100.273 238.061 100.453 235.846C100.561 235.066 100.538 234.541 100.569 234.541Z" fill="#E0E0E0"/>
<path d="M94.2537 235.167C94.2537 235.167 94.3154 235.622 94.4621 236.356C94.6467 237.307 94.9394 238.234 95.3345 239.119C95.7373 240.003 96.2371 240.839 96.8244 241.613C97.2722 242.2 97.5964 242.539 97.5964 242.555C97.5059 242.493 97.423 242.42 97.3494 242.339C97.2027 242.192 96.9943 241.968 96.755 241.682C96.1376 240.919 95.6189 240.081 95.211 239.189C94.8109 238.292 94.5281 237.348 94.3695 236.379C94.3154 236 94.2768 235.699 94.2691 235.491C94.2457 235.384 94.2405 235.275 94.2537 235.167Z" fill="#E0E0E0"/>
<path d="M99.7656 231.909C99.7753 232.004 99.7753 232.099 99.7656 232.194C99.7656 232.38 99.7656 232.65 99.7656 232.966C99.6913 233.835 99.5284 234.694 99.2792 235.529C99.0283 236.364 98.6947 237.17 98.2833 237.938C98.1602 238.17 98.0236 238.394 97.8742 238.61C97.7738 238.772 97.712 238.849 97.6966 238.841C97.6812 238.834 97.8896 238.479 98.183 237.884C98.9462 236.337 99.4422 234.672 99.6498 232.959C99.7192 232.318 99.7424 231.901 99.7656 231.909Z" fill="#E0E0E0"/>
<path d="M95.7279 232.434C95.7279 232.434 95.7279 232.912 95.7279 233.669C95.7585 234.657 95.8852 235.639 96.1062 236.603C96.3306 237.565 96.654 238.501 97.0712 239.397C97.3877 240.092 97.627 240.493 97.6039 240.509C97.5293 240.427 97.4645 240.336 97.4109 240.239C97.2951 240.061 97.1407 239.791 96.9631 239.467C96.5151 238.573 96.1731 237.63 95.9441 236.657C95.7182 235.682 95.6093 234.684 95.6198 233.684C95.6192 233.383 95.6347 233.081 95.6662 232.781C95.6729 232.663 95.6936 232.547 95.7279 232.434Z" fill="#E0E0E0"/>
<path d="M96.9862 230.975C96.9862 230.975 96.9167 231.245 96.8549 231.693C96.7935 232.276 96.8274 232.865 96.9553 233.437C97.2641 234.773 97.7273 235.8 97.7273 235.823C97.5941 235.616 97.4829 235.396 97.3953 235.167C97.1542 234.62 96.9655 234.051 96.8318 233.468C96.6987 232.88 96.683 232.271 96.7854 231.677C96.802 231.431 96.8704 231.192 96.9862 230.975Z" fill="#E0E0E0"/>
<path d="M94.6011 241.088C94.6474 241.088 95.0952 241.929 95.844 242.863C96.5928 243.798 97.3185 244.407 97.2876 244.469C97.0998 244.366 96.9282 244.236 96.7781 244.083C96.3915 243.741 96.0351 243.367 95.7128 242.964C95.3953 242.558 95.1113 242.127 94.8636 241.675C94.7467 241.494 94.6582 241.296 94.6011 241.088Z" fill="#E0E0E0"/>
<path d="M100.638 242.115C100.539 242.337 100.406 242.542 100.244 242.725C99.8971 243.188 99.5206 243.629 99.1171 244.045C98.7119 244.464 98.2813 244.859 97.8278 245.226C97.6498 245.389 97.4497 245.527 97.2334 245.635C97.3916 245.454 97.5646 245.286 97.7506 245.133C98.0826 244.84 98.5226 244.423 99.0013 243.937C99.4799 243.45 99.8736 242.987 100.159 242.647C100.304 242.457 100.464 242.279 100.638 242.115Z" fill="#E0E0E0"/>
<path d="M103.973 265.645C103.927 265.645 104.112 261.175 104.382 255.679C104.652 250.182 104.915 245.72 104.961 245.72C105.007 245.72 104.822 250.182 104.544 255.686C104.266 261.191 104.019 265.645 103.973 265.645Z" fill="#E0E0E0"/>
<path d="M107.447 250.167C107.463 250.29 107.463 250.414 107.447 250.537C107.471 250.874 107.471 251.212 107.447 251.548C107.327 253.791 106.557 255.95 105.231 257.763C105.032 258.032 104.818 258.29 104.591 258.535C104.513 258.632 104.425 258.72 104.328 258.798C104.328 258.798 104.66 258.388 105.139 257.686C106.396 255.854 107.152 253.725 107.331 251.51C107.447 250.692 107.416 250.167 107.447 250.167Z" fill="#E0E0E0"/>
<path d="M101.132 250.792C101.132 250.792 101.194 251.247 101.341 251.981C101.524 252.933 101.82 253.861 102.221 254.745C102.618 255.629 103.116 256.466 103.703 257.238C104.158 257.825 104.475 258.164 104.475 258.18C104.383 258.12 104.299 258.047 104.228 257.964C104.073 257.817 103.873 257.593 103.626 257.308C103.004 256.548 102.485 255.709 102.082 254.814C101.68 253.917 101.394 252.973 101.232 252.004C101.178 251.626 101.148 251.325 101.14 251.116C101.127 251.009 101.125 250.9 101.132 250.792Z" fill="#E0E0E0"/>
<path d="M106.644 247.534C106.644 247.534 106.644 247.634 106.644 247.82C106.644 248.005 106.644 248.275 106.644 248.592C106.569 249.46 106.409 250.318 106.165 251.155C105.916 251.99 105.579 252.798 105.162 253.563C105 253.857 104.861 254.088 104.76 254.235C104.66 254.382 104.59 254.474 104.583 254.467C104.575 254.459 104.768 254.104 105.061 253.509C105.441 252.736 105.759 251.933 106.011 251.108C106.256 250.283 106.432 249.439 106.536 248.584C106.605 247.943 106.621 247.526 106.644 247.534Z" fill="#E0E0E0"/>
<path d="M102.568 248.059C102.568 248.059 102.568 248.538 102.568 249.294C102.591 250.282 102.716 251.265 102.938 252.228C103.166 253.189 103.489 254.125 103.903 255.022C104.228 255.717 104.467 256.119 104.444 256.134C104.421 256.15 104.359 256.041 104.251 255.864C104.085 255.617 103.935 255.359 103.803 255.092C103.352 254.2 103.009 253.256 102.784 252.282C102.552 251.308 102.441 250.31 102.452 249.31C102.453 249.008 102.471 248.706 102.506 248.406C102.516 248.289 102.537 248.173 102.568 248.059Z" fill="#E0E0E0"/>
<path d="M103.865 246.6C103.865 246.6 103.795 246.87 103.741 247.318C103.677 247.901 103.709 248.49 103.834 249.063C104.143 250.398 104.606 251.425 104.606 251.448C104.469 251.244 104.358 251.023 104.274 250.792C104.033 250.245 103.844 249.676 103.71 249.093C103.579 248.505 103.561 247.897 103.656 247.302C103.675 247.056 103.746 246.817 103.865 246.6Z" fill="#E0E0E0"/>
<path d="M101.487 256.713C101.487 256.713 101.974 257.555 102.722 258.489C103.471 259.423 104.205 260.033 104.174 260.094C103.983 259.993 103.808 259.863 103.657 259.708C103.276 259.374 102.922 259.01 102.599 258.62C102.277 258.216 101.99 257.784 101.742 257.331C101.622 257.141 101.536 256.932 101.487 256.713Z" fill="#E0E0E0"/>
<path d="M107.524 257.74C107.417 257.958 107.285 258.163 107.13 258.35C106.778 258.811 106.399 259.252 105.995 259.67C105.59 260.09 105.16 260.484 104.706 260.851C104.528 261.015 104.328 261.152 104.112 261.26C104.274 261.08 104.45 260.913 104.637 260.758C104.961 260.465 105.409 260.048 105.88 259.562C106.351 259.075 106.752 258.612 107.038 258.273C107.183 258.081 107.346 257.902 107.524 257.74Z" fill="#E0E0E0"/>
<path d="M127.851 271.837C127.805 271.837 126.392 267.614 124.693 262.372C122.995 257.13 121.652 252.876 121.69 252.861C121.729 252.845 123.142 257.084 124.848 262.326C126.554 267.567 127.889 271.821 127.851 271.837Z" fill="#E0E0E0"/>
<path d="M125.596 256.134C125.664 256.239 125.721 256.35 125.766 256.466C125.902 256.773 126.021 257.088 126.121 257.408C126.461 258.472 126.646 259.58 126.67 260.697C126.69 261.814 126.553 262.93 126.26 264.009C126.172 264.333 126.067 264.653 125.944 264.966C125.902 265.083 125.85 265.197 125.789 265.306C125.789 265.306 125.952 264.804 126.152 263.978C126.408 262.906 126.527 261.806 126.507 260.704C126.483 259.602 126.317 258.507 126.013 257.447C125.782 256.628 125.573 256.142 125.596 256.134Z" fill="#E0E0E0"/>
<path d="M119.915 258.96C119.915 258.96 120.138 259.369 120.532 260.002C121.048 260.823 121.654 261.585 122.339 262.272C123.023 262.957 123.785 263.56 124.608 264.07C125.241 264.464 125.658 264.665 125.651 264.688C125.543 264.662 125.439 264.624 125.342 264.572C125.076 264.455 124.818 264.32 124.57 264.171C123.724 263.678 122.946 263.079 122.254 262.387C121.558 261.697 120.955 260.919 120.463 260.071C120.316 259.821 120.182 259.563 120.061 259.299C119.997 259.194 119.947 259.079 119.915 258.96Z" fill="#E0E0E0"/>
<path d="M123.913 253.988C123.968 254.068 124.01 254.157 124.037 254.25C124.133 254.503 124.215 254.761 124.284 255.022C124.528 255.858 124.684 256.717 124.747 257.585C124.809 258.453 124.783 259.325 124.67 260.187C124.624 260.519 124.57 260.789 124.531 260.959C124.514 261.055 124.485 261.148 124.446 261.237C124.446 261.237 124.492 260.828 124.554 260.172C124.623 259.311 124.623 258.446 124.554 257.585C124.489 256.729 124.352 255.879 124.145 255.046C124.014 254.351 123.89 253.988 123.913 253.988Z" fill="#E0E0E0"/>
<path d="M120.293 255.903C120.293 255.903 120.455 256.343 120.741 257.045C121.484 258.886 122.604 260.55 124.029 261.932C124.57 262.457 124.94 262.75 124.925 262.773C124.824 262.726 124.73 262.663 124.647 262.588C124.401 262.41 124.166 262.217 123.945 262.009C122.469 260.654 121.334 258.969 120.633 257.091C120.501 256.729 120.409 256.435 120.355 256.227C120.32 256.122 120.299 256.013 120.293 255.903Z" fill="#E0E0E0"/>
<path d="M120.98 254.073C120.98 254.073 120.98 254.351 121.119 254.791C121.268 255.356 121.508 255.893 121.829 256.381C122.601 257.524 123.42 258.311 123.373 258.35C123.173 258.208 122.992 258.042 122.833 257.856C122.412 257.429 122.032 256.964 121.698 256.466C121.367 255.965 121.136 255.404 121.019 254.814C120.954 254.572 120.941 254.32 120.98 254.073Z" fill="#E0E0E0"/>
<path d="M122.354 264.371C122.354 264.333 123.126 264.981 124.138 265.591C125.149 266.201 126.076 266.525 126.06 266.572C125.848 266.551 125.642 266.494 125.45 266.402C124.966 266.217 124.499 265.993 124.053 265.73C123.609 265.468 123.191 265.166 122.802 264.827C122.628 264.702 122.476 264.548 122.354 264.371Z" fill="#E0E0E0"/>
<path d="M128.36 263.19C128.336 263.43 128.284 263.665 128.206 263.893C128.044 264.452 127.848 265.002 127.619 265.537C127.397 266.068 127.139 266.584 126.847 267.081C126.74 267.3 126.602 267.503 126.438 267.683C126.523 267.457 126.626 267.237 126.747 267.027C126.948 266.633 127.218 266.085 127.519 265.483C127.82 264.881 127.997 264.294 128.144 263.877C128.19 263.641 128.263 263.41 128.36 263.19Z" fill="#E0E0E0"/>
<path d="M153.35 250.02C153.35 250.02 150.587 253.533 147.113 257.802C143.639 262.071 140.782 265.522 140.751 265.522C140.72 265.522 143.507 262.009 146.989 257.732C150.471 253.455 153.312 249.997 153.35 250.02Z" fill="#E0E0E0"/>
<path d="M141.376 260.426C141.431 260.317 141.493 260.211 141.562 260.11C141.748 259.827 141.949 259.554 142.164 259.292C143.595 257.564 145.492 256.283 147.63 255.601C147.951 255.5 148.279 255.417 148.61 255.354C148.73 255.319 148.855 255.301 148.981 255.3C148.981 255.3 148.471 255.432 147.668 255.71C146.628 256.078 145.638 256.573 144.719 257.184C143.807 257.806 142.977 258.54 142.249 259.369C141.693 260.01 141.407 260.45 141.376 260.426Z" fill="#E0E0E0"/>
<path d="M146.834 263.669C146.834 263.669 147.058 263.26 147.375 262.588C147.785 261.709 148.096 260.787 148.301 259.84C148.506 258.891 148.601 257.923 148.587 256.952C148.587 256.18 148.51 255.748 148.541 255.748C148.573 255.851 148.596 255.957 148.61 256.065C148.654 256.359 148.683 256.655 148.695 256.952C148.747 257.934 148.669 258.917 148.463 259.878C148.246 260.837 147.906 261.763 147.452 262.634C147.323 262.903 147.173 263.161 147.004 263.406C146.96 263.501 146.902 263.589 146.834 263.669Z" fill="#E0E0E0"/>
<path d="M140.504 263.028C140.504 263.028 140.55 262.935 140.658 262.781C140.812 262.567 140.977 262.36 141.152 262.163C141.724 261.509 142.36 260.914 143.052 260.388C143.746 259.864 144.494 259.413 145.283 259.045C145.533 258.926 145.791 258.823 146.055 258.736C146.143 258.696 146.237 258.668 146.333 258.651C146.333 258.651 145.962 258.836 145.375 259.145C144.609 259.54 143.878 259.999 143.19 260.519C142.506 261.042 141.863 261.617 141.268 262.241C140.743 262.727 140.504 263.044 140.504 263.028Z" fill="#E0E0E0"/>
<path d="M144.063 265.012C144.063 265.012 144.349 264.634 144.781 264.016C145.347 263.204 145.83 262.338 146.225 261.43C146.612 260.521 146.904 259.574 147.097 258.605C147.251 257.833 147.298 257.393 147.329 257.393C147.34 257.503 147.34 257.614 147.329 257.724C147.31 258.027 147.274 258.329 147.22 258.628C147.052 259.612 146.77 260.573 146.379 261.492C145.985 262.413 145.482 263.284 144.881 264.086C144.65 264.387 144.449 264.626 144.302 264.781C144.233 264.868 144.153 264.946 144.063 265.012Z" fill="#E0E0E0"/>
<path d="M142.148 265.429C142.148 265.429 142.372 265.251 142.681 264.919C143.076 264.489 143.397 263.996 143.631 263.46C144.179 262.202 144.403 261.083 144.457 261.098C144.444 261.359 144.403 261.618 144.333 261.87C144.203 262.453 144.017 263.022 143.777 263.568C143.536 264.121 143.19 264.622 142.758 265.043C142.584 265.212 142.376 265.344 142.148 265.429Z" fill="#E0E0E0"/>
<path d="M150.061 258.689C150.015 258.689 150.162 257.717 150.115 256.528C150.069 255.339 149.853 254.389 149.899 254.374C149.992 254.569 150.054 254.778 150.084 254.992C150.194 255.5 150.258 256.016 150.277 256.536C150.296 257.051 150.27 257.568 150.2 258.08C150.187 258.289 150.14 258.495 150.061 258.689Z" fill="#E0E0E0"/>
<path d="M145.808 254.281C146.02 254.17 146.246 254.084 146.479 254.027C147.037 253.862 147.604 253.73 148.178 253.633C148.752 253.537 149.333 253.475 149.915 253.448C150.156 253.422 150.399 253.422 150.64 253.448C150.405 253.505 150.164 253.538 149.922 253.548C149.482 253.594 148.872 253.664 148.209 253.78C147.545 253.895 146.942 254.019 146.51 254.127C146.282 254.203 146.046 254.254 145.808 254.281Z" fill="#E0E0E0"/>
<path d="M101.487 304.623C101.441 304.623 101.294 300.161 101.147 294.657C101.001 289.153 100.931 284.683 100.978 284.683C101.024 284.683 101.171 289.145 101.31 294.649C101.449 300.154 101.533 304.623 101.487 304.623Z" fill="#E0E0E0"/>
<path d="M103.788 288.929C103.829 289.048 103.853 289.173 103.857 289.299C103.902 289.632 103.928 289.967 103.935 290.303C103.974 292.547 103.369 294.755 102.19 296.664C101.958 297.027 101.757 297.313 101.611 297.498C101.541 297.601 101.458 297.694 101.364 297.776C101.364 297.776 101.665 297.343 102.089 296.61C102.645 295.656 103.073 294.634 103.363 293.568C103.652 292.503 103.805 291.406 103.819 290.303C103.826 289.5 103.757 288.936 103.788 288.929Z" fill="#E0E0E0"/>
<path d="M97.5344 290.025C97.5344 290.025 97.6348 290.48 97.8355 291.198C98.0933 292.134 98.4559 293.038 98.9163 293.893C99.3841 294.741 99.9433 295.536 100.584 296.263C101.086 296.819 101.425 297.127 101.41 297.151C101.314 297.096 101.225 297.028 101.147 296.95C100.921 296.76 100.707 296.557 100.507 296.34C99.8289 295.629 99.2475 294.832 98.7773 293.97C98.3104 293.106 97.9574 292.184 97.7274 291.229C97.657 290.939 97.6029 290.645 97.5653 290.349C97.5429 290.243 97.5325 290.134 97.5344 290.025Z" fill="#E0E0E0"/>
<path d="M102.792 286.366C102.821 286.458 102.837 286.554 102.838 286.651C102.838 286.837 102.838 287.107 102.838 287.423C102.832 288.295 102.737 289.165 102.552 290.017C102.368 290.867 102.094 291.695 101.734 292.488C101.595 292.789 101.479 293.036 101.387 293.198C101.347 293.286 101.292 293.367 101.225 293.437C101.225 293.437 101.387 293.059 101.634 292.441C101.959 291.643 102.217 290.82 102.406 289.979C102.583 289.137 102.694 288.282 102.738 287.423C102.776 286.775 102.769 286.366 102.792 286.366Z" fill="#E0E0E0"/>
<path d="M98.7696 287.184C98.7696 287.184 98.7696 287.655 98.8699 288.411C98.9718 289.396 99.1709 290.369 99.4644 291.314C99.7621 292.255 100.155 293.163 100.638 294.024C101.008 294.688 101.279 295.074 101.255 295.089C101.173 295.013 101.101 294.928 101.039 294.834C100.908 294.665 100.738 294.41 100.537 294.062C100.023 293.205 99.6106 292.291 99.31 291.337C99.0095 290.383 98.8254 289.395 98.7618 288.396C98.7618 288.018 98.7618 287.709 98.7618 287.493C98.7532 287.39 98.7558 287.286 98.7696 287.184Z" fill="#E0E0E0"/>
<path d="M99.9506 285.64C99.9506 285.64 99.8966 285.918 99.8812 286.366C99.8574 286.951 99.9331 287.535 100.105 288.095C100.514 289.407 101.085 290.411 101.024 290.411C100.87 290.217 100.74 290.004 100.638 289.778C100.356 289.251 100.126 288.697 99.9506 288.126C99.7733 287.549 99.7104 286.943 99.7654 286.343C99.7804 286.098 99.8433 285.86 99.9506 285.64Z" fill="#E0E0E0"/>
<path d="M98.3374 295.908C98.376 295.908 98.8932 296.68 99.7038 297.583C100.514 298.486 101.294 299.034 101.248 299.073C101.05 298.99 100.868 298.875 100.707 298.733C100.296 298.421 99.9138 298.072 99.5649 297.691C99.2084 297.317 98.8902 296.908 98.6153 296.471C98.4895 296.302 98.3953 296.111 98.3374 295.908Z" fill="#E0E0E0"/>
<path d="M104.436 296.448C104.346 296.672 104.229 296.885 104.089 297.081C103.454 298.06 102.705 298.959 101.858 299.76C101.693 299.935 101.506 300.088 101.302 300.215C101.446 300.022 101.606 299.841 101.78 299.675C102.081 299.358 102.498 298.903 102.931 298.386C103.363 297.868 103.703 297.374 103.988 297.019C104.115 296.812 104.265 296.62 104.436 296.448Z" fill="#E0E0E0"/>
<path d="M118.479 288.828C118.432 288.828 117.02 284.606 115.321 279.371C113.623 274.137 112.272 269.868 112.318 269.853C112.364 269.837 113.769 274.075 115.476 279.317C117.182 284.559 118.517 288.813 118.479 288.828Z" fill="#E0E0E0"/>
<path d="M116.225 273.126C116.29 273.232 116.347 273.343 116.394 273.458C116.531 273.767 116.65 274.084 116.75 274.407C117.09 275.471 117.275 276.579 117.298 277.696C117.319 278.811 117.181 279.924 116.889 281C116.8 281.326 116.692 281.645 116.564 281.958C116.479 282.181 116.425 282.305 116.41 282.297C116.394 282.289 116.572 281.795 116.773 280.969C117.035 279.899 117.157 278.798 117.136 277.696C117.11 276.594 116.944 275.499 116.642 274.438C116.41 273.62 116.194 273.141 116.225 273.126Z" fill="#E0E0E0"/>
<path d="M110.543 275.951C110.543 275.951 110.767 276.361 111.16 276.994C111.673 277.815 112.276 278.577 112.959 279.263C113.662 279.949 114.439 280.555 115.275 281.07C115.908 281.456 116.325 281.656 116.317 281.68C116.31 281.703 116.202 281.68 116.009 281.572C115.816 281.463 115.545 281.348 115.237 281.162C114.391 280.67 113.613 280.071 112.921 279.379C112.224 278.689 111.622 277.91 111.13 277.063C110.981 276.814 110.847 276.556 110.728 276.291C110.574 276.067 110.527 275.959 110.543 275.951Z" fill="#E0E0E0"/>
<path d="M114.542 270.972C114.589 271.055 114.628 271.143 114.657 271.234C114.727 271.412 114.819 271.667 114.912 272.006C115.392 273.686 115.521 275.447 115.29 277.179C115.258 277.438 115.211 277.696 115.151 277.951C115.137 278.049 115.111 278.145 115.074 278.237C115.088 277.877 115.124 277.519 115.182 277.163C115.251 276.305 115.251 275.443 115.182 274.585C115.113 273.726 114.976 272.875 114.773 272.037C114.675 271.687 114.598 271.331 114.542 270.972Z" fill="#E0E0E0"/>
<path d="M110.921 272.894C110.921 272.894 111.075 273.342 111.369 274.045C111.743 274.959 112.208 275.833 112.758 276.654C113.312 277.471 113.946 278.232 114.65 278.924C115.198 279.456 115.568 279.75 115.545 279.773C115.447 279.719 115.354 279.657 115.267 279.588C115.097 279.464 114.858 279.263 114.572 279.009C113.838 278.33 113.183 277.572 112.619 276.747C112.065 275.914 111.609 275.02 111.261 274.083C111.129 273.72 111.037 273.427 110.983 273.219C110.943 273.115 110.922 273.005 110.921 272.894Z" fill="#E0E0E0"/>
<path d="M111.608 271.065C111.608 271.065 111.608 271.35 111.747 271.783C111.889 272.35 112.13 272.888 112.457 273.373C113.229 274.515 114.047 275.303 114.001 275.349C113.811 275.196 113.637 275.022 113.484 274.832C113.063 274.41 112.685 273.947 112.357 273.45C112.025 272.945 111.791 272.382 111.67 271.79C111.601 271.555 111.58 271.308 111.608 271.065Z" fill="#E0E0E0"/>
<path d="M112.975 281.371C112.975 281.332 113.747 281.981 114.766 282.583C115.785 283.185 116.703 283.525 116.688 283.571C116.475 283.541 116.267 283.481 116.07 283.393C115.589 283.209 115.124 282.984 114.681 282.722C114.238 282.457 113.817 282.158 113.422 281.826C113.255 281.693 113.105 281.54 112.975 281.371Z" fill="#E0E0E0"/>
<path d="M118.989 280.182C118.966 280.422 118.914 280.657 118.834 280.884C118.502 282.002 118.041 283.078 117.46 284.088C117.345 284.3 117.208 284.5 117.051 284.683C117.137 284.459 117.24 284.242 117.36 284.034C117.56 283.633 117.831 283.085 118.093 282.49C118.355 281.896 118.572 281.294 118.726 280.877C118.788 280.636 118.876 280.404 118.989 280.182Z" fill="#E0E0E0"/>
<path d="M65.7435 295.028C65.6972 295.028 64.2844 290.805 62.586 285.571C60.8876 280.336 59.5366 276.067 59.5829 276.052C59.6293 276.036 61.0343 280.275 62.7404 285.516C64.4465 290.758 65.7821 295.02 65.7435 295.028Z" fill="#E0E0E0"/>
<path d="M63.4893 279.325C63.5549 279.431 63.6117 279.542 63.6591 279.657C63.7959 279.966 63.9145 280.283 64.0142 280.607C64.3546 281.671 64.5393 282.778 64.5624 283.895C64.5819 285.005 64.4442 286.113 64.1532 287.184C64.0645 287.509 63.9563 287.829 63.829 288.141C63.744 288.365 63.69 288.489 63.6746 288.481C63.6591 288.473 63.8444 287.979 64.0451 287.153C64.3004 286.081 64.4197 284.981 64.4002 283.88C64.375 282.777 64.2089 281.682 63.9062 280.622C63.6746 279.827 63.4584 279.34 63.4893 279.325Z" fill="#E0E0E0"/>
<path d="M57.8074 282.158C57.8074 282.158 58.0313 282.56 58.425 283.193C58.9351 284.014 59.5358 284.775 60.216 285.462C60.919 286.148 61.6957 286.754 62.532 287.269C63.1651 287.663 63.5819 287.856 63.5742 287.887C63.4668 287.861 63.3631 287.822 63.2654 287.771C63.0724 287.686 62.8022 287.547 62.4934 287.362C61.6478 286.869 60.8694 286.27 60.1774 285.578C59.4812 284.888 58.879 284.11 58.3864 283.262C58.238 283.013 58.104 282.755 57.9849 282.49C57.9124 282.387 57.8528 282.276 57.8074 282.158Z" fill="#E0E0E0"/>
<path d="M61.8064 277.148C61.8559 277.23 61.8949 277.318 61.9222 277.41C61.9917 277.588 62.0843 277.843 62.177 278.182C62.6453 279.854 62.7661 281.604 62.5321 283.324C62.4858 283.656 62.4394 283.918 62.3931 284.096C62.3784 284.191 62.3525 284.285 62.3159 284.374C62.3159 284.374 62.3622 283.957 62.424 283.301C62.4925 282.443 62.4925 281.581 62.424 280.722C62.3545 279.864 62.2177 279.012 62.0148 278.175C61.9262 277.837 61.8566 277.494 61.8064 277.148Z" fill="#E0E0E0"/>
<path d="M58.1855 279.093C58.1855 279.093 58.3477 279.541 58.6333 280.244C59.0059 281.159 59.4715 282.033 60.0229 282.853C60.5766 283.67 61.2102 284.431 61.9143 285.123C62.4624 285.655 62.833 285.949 62.8098 285.972L62.5396 285.787C62.2951 285.607 62.0606 285.413 61.8371 285.208C61.0993 284.533 60.4438 283.774 59.8839 282.946C59.3299 282.113 58.874 281.22 58.5252 280.282C58.394 279.927 58.3013 279.626 58.2473 279.418C58.207 279.314 58.186 279.204 58.1855 279.093Z" fill="#E0E0E0"/>
<path d="M58.8726 277.264C58.8726 277.264 58.8726 277.549 59.0116 277.982C59.1553 278.551 59.3955 279.092 59.7218 279.58C60.4938 280.715 61.3121 281.502 61.2658 281.548C61.0656 281.401 60.8818 281.233 60.7177 281.047C60.2967 280.625 59.9191 280.162 59.5906 279.665C59.2617 279.158 59.0288 278.596 58.9035 278.005C58.8435 277.762 58.833 277.51 58.8726 277.264Z" fill="#E0E0E0"/>
<path d="M60.2161 287.57C60.2161 287.531 60.9881 288.18 62.0071 288.782C63.0261 289.384 63.9448 289.724 63.9294 289.77C63.7163 289.74 63.5084 289.68 63.3118 289.593C62.8306 289.408 62.3657 289.183 61.9222 288.921C61.4806 288.659 61.0622 288.359 60.6715 288.025C60.5008 287.894 60.3478 287.741 60.2161 287.57Z" fill="#E0E0E0"/>
<path d="M66.2531 286.412C66.2298 286.654 66.1779 286.892 66.0987 287.122C65.9333 287.678 65.7374 288.224 65.512 288.759C65.2842 289.288 65.0264 289.803 64.74 290.303C64.6371 290.522 64.4989 290.723 64.3308 290.897C64.4168 290.673 64.52 290.457 64.6396 290.249C64.8403 289.847 65.1105 289.299 65.4116 288.705C65.7127 288.11 65.898 287.508 66.0447 287.091C66.0908 286.858 66.1606 286.631 66.2531 286.412Z" fill="#E0E0E0"/>
<path d="M88.1853 279.773C88.139 279.773 88.3243 275.303 88.5945 269.806C88.8647 264.31 89.1272 259.847 89.1735 259.847C89.2198 259.847 89.0268 264.31 88.7566 269.814C88.4864 275.318 88.2316 279.773 88.1853 279.773Z" fill="#E0E0E0"/>
<path d="M91.6594 264.294C91.6704 264.417 91.6704 264.541 91.6594 264.665C91.6831 265.001 91.6831 265.339 91.6594 265.676C91.5391 267.919 90.7693 270.078 89.4438 271.891C89.2444 272.159 89.0305 272.417 88.803 272.663C88.7259 272.76 88.6378 272.848 88.5405 272.925C88.5405 272.925 88.8725 272.508 89.3511 271.813C90.6084 269.981 91.3643 267.852 91.5436 265.637C91.6517 264.796 91.6285 264.294 91.6594 264.294Z" fill="#E0E0E0"/>
<path d="M85.3446 264.919C85.3446 264.919 85.4064 265.375 85.5531 266.108C85.7376 267.06 86.0303 267.987 86.4254 268.872C86.8283 269.756 87.328 270.592 87.9154 271.366C88.3631 271.952 88.6874 272.292 88.6874 272.308C88.5986 272.246 88.5182 272.173 88.4481 272.091C88.2357 271.884 88.0347 271.665 87.8459 271.435C87.2271 270.67 86.7082 269.83 86.3019 268.934C85.8998 268.038 85.6169 267.093 85.4604 266.124C85.4148 265.832 85.3839 265.538 85.3678 265.244C85.34 265.138 85.3321 265.028 85.3446 264.919Z" fill="#E0E0E0"/>
<path d="M90.8567 261.654C90.8567 261.654 90.8567 261.762 90.8567 261.947C90.8567 262.133 90.8567 262.403 90.8567 262.719C90.7824 263.588 90.6194 264.447 90.3703 265.282C90.1228 266.118 89.789 266.925 89.3744 267.691C89.2495 267.922 89.113 268.146 88.9653 268.363C88.92 268.448 88.8628 268.526 88.7954 268.594C88.7954 268.594 88.9807 268.231 89.2741 267.637C89.6544 266.864 89.9695 266.061 90.2159 265.236C90.4641 264.411 90.6398 263.567 90.7409 262.712C90.8103 262.071 90.8335 261.654 90.8567 261.654Z" fill="#E0E0E0"/>
<path d="M86.7806 262.187C86.7806 262.187 86.7806 262.665 86.7806 263.422C86.8042 264.41 86.9284 265.393 87.1511 266.355C87.3755 267.318 87.6989 268.254 88.1161 269.15C88.4326 269.845 88.672 270.246 88.6488 270.262C88.5742 270.179 88.5095 270.089 88.4558 269.992C88.2955 269.742 88.1486 269.485 88.0158 269.22C87.5615 268.328 87.2167 267.384 86.989 266.409C86.7631 265.435 86.6543 264.437 86.6648 263.437C86.6648 263.059 86.6648 262.742 86.7111 262.534C86.7258 262.417 86.749 262.301 86.7806 262.187Z" fill="#E0E0E0"/>
<path d="M88.0776 260.728C88.0776 260.728 88.0082 260.998 87.9541 261.445C87.8898 262.026 87.9211 262.612 88.0468 263.182C88.3556 264.526 88.8188 265.553 88.8188 265.576C88.6773 265.371 88.5656 265.148 88.4868 264.912C88.241 264.369 88.0521 263.803 87.9232 263.221C87.7921 262.633 87.7738 262.025 87.8692 261.43C87.8882 261.184 87.9592 260.944 88.0776 260.728Z" fill="#E0E0E0"/>
<path d="M85.6919 270.841C85.6919 270.841 86.1783 271.682 86.9271 272.616C87.6759 273.55 88.4093 274.16 88.3707 274.222C88.1844 274.117 88.0131 273.987 87.8612 273.836C87.0905 273.148 86.443 272.334 85.9467 271.427C85.8297 271.247 85.7436 271.049 85.6919 270.841Z" fill="#E0E0E0"/>
<path d="M91.7369 271.867C91.6308 272.084 91.4986 272.286 91.3432 272.47C90.6429 273.401 89.8285 274.242 88.9191 274.971C88.7424 275.138 88.5421 275.279 88.3247 275.388C88.4846 275.205 88.6603 275.038 88.8497 274.886C89.1739 274.593 89.6217 274.168 90.0926 273.689C90.5635 273.211 90.9649 272.74 91.2506 272.4C91.3936 272.206 91.5566 272.027 91.7369 271.867Z" fill="#E0E0E0"/>
<g opacity="0.3">
<path d="M83.6846 233.677C86.7076 236.074 90.1501 237.888 93.8364 239.027C95.3955 239.597 97.068 239.787 98.7154 239.582C99.5364 239.468 100.311 239.133 100.956 238.612C101.6 238.091 102.091 237.404 102.375 236.626C102.49 236.232 102.475 235.707 102.104 235.537C101.734 235.367 101.332 235.707 100.954 235.969C99.8503 236.796 96.5615 236.996 95.1874 236.834C90.6866 236.309 87.7607 235.213 83.6846 233.692" fill="black"/>
</g>
<path d="M112.712 265.004C112.767 265.123 112.808 265.247 112.835 265.375C112.905 265.63 113.021 265.993 113.113 266.479C113.413 267.847 113.586 269.24 113.631 270.64C113.834 275.301 112.75 279.927 110.497 284.012C108.245 288.098 104.911 291.484 100.862 293.8C99.651 294.506 98.3799 295.103 97.0635 295.583C96.608 295.761 96.2297 295.854 95.9827 295.938C95.859 295.986 95.7289 296.014 95.5967 296.023C96.0569 295.803 96.5284 295.607 97.0094 295.437C98.2905 294.906 99.5292 294.279 100.715 293.561C104.663 291.213 107.914 287.855 110.134 283.833C112.354 279.811 113.462 275.271 113.345 270.679C113.327 269.291 113.198 267.907 112.959 266.541C112.848 266.034 112.766 265.521 112.712 265.004Z" fill="#263238"/>
<g opacity="0.2">
<path d="M113.345 270.076C113.399 271.75 113.074 273.414 112.395 274.945C111.716 276.475 110.7 277.833 109.423 278.916C107.764 280.298 105.718 281.17 104.019 282.567C102.499 283.853 101.364 285.533 100.738 287.423C100.422 288.404 100.283 289.6 100.993 290.341C101.703 291.083 103.178 290.975 104.243 290.519C107.725 289.045 110.203 285.779 111.539 282.243C112.874 278.707 113.198 274.871 113.43 271.096" fill="black"/>
</g>
<path d="M132.877 267.22C131.676 264.18 131.715 260.79 132.985 257.779C132.687 259.336 132.493 260.912 132.406 262.495C132.455 264.079 132.612 265.658 132.877 267.22Z" fill="#263238"/>
<path d="M135.208 266.286C134.239 265.093 133.586 263.675 133.309 262.163C132.903 260.683 132.882 259.123 133.247 257.632C133.284 259.124 133.436 260.61 133.703 262.079C134.104 263.515 134.607 264.921 135.208 266.286Z" fill="#263238"/>
<path d="M173.383 244.477C173.383 244.477 173.144 244.292 172.719 244.091C172.145 243.815 171.49 243.755 170.874 243.921L170.527 244.021L170.705 243.697C170.949 243.246 171.111 242.754 171.183 242.246C171.328 241.25 171.173 240.234 170.735 239.328C170.396 238.625 170.033 238.285 170.079 238.247C170.45 238.485 170.747 238.822 170.936 239.22C171.469 240.155 171.67 241.243 171.507 242.308C171.42 242.85 171.237 243.373 170.967 243.852L170.789 243.628C171.474 243.458 172.199 243.566 172.804 243.929C173.244 244.199 173.399 244.461 173.383 244.477Z" fill="#AA6550"/>
<path d="M178.564 241.103C179.282 239.343 186.477 236.24 185.512 235.136C184.284 233.7 178.139 238.718 177.591 239.104C177.043 239.49 176.487 238.695 177.004 238.332C177.738 237.869 185.388 232.827 184.199 231.384C183.535 230.612 182.254 231.955 182.254 231.955C182.254 231.955 175.429 237.212 174.889 236.518C174.349 235.823 178.239 232.596 179.629 231.608C181.019 230.62 181.119 229.562 180.193 229.292C179.56 229.114 175.236 232.048 173.878 233.067C172.519 234.086 168.86 236.927 169.57 234.024C170.28 231.121 169.747 228.62 169.153 228.064C168.559 227.508 167.555 228.149 167.717 229.06C167.803 230.063 167.751 231.074 167.563 232.063C167.396 232.863 167.137 233.64 166.791 234.379C166.069 236.062 164.903 237.517 163.417 238.587L171.021 247.542L171.994 246.886C175.754 244.33 179.282 243.35 181.32 242.176C185.11 239.984 184.925 239.637 184.608 239.227C183.798 238.185 177.846 242.863 178.564 241.103Z" fill="#B78876"/>
<path d="M168.296 226.968L170.759 242.956L180.393 242.794L180.841 239.806C180.841 239.806 186.299 239.806 186.724 235.174C187.148 230.542 182.462 230.496 182.462 230.496L183.172 226.32L168.296 226.968ZM181.073 238.177L182.207 232.248C182.207 232.248 185.504 232.194 185.249 234.858C184.994 237.521 181.034 238.154 181.034 238.154L181.073 238.177Z" fill="#455A64"/>
<path d="M175.46 205.437C175.46 205.437 175.53 205.476 175.638 205.576C175.783 205.737 175.908 205.916 176.008 206.109C176.332 206.852 176.413 207.679 176.24 208.471C175.974 209.614 175.547 210.713 174.974 211.736C174.682 212.339 174.462 212.974 174.318 213.628C174.177 214.317 174.236 215.032 174.487 215.689C175.086 216.952 175.913 218.093 176.927 219.055C177.773 219.897 178.385 220.946 178.703 222.097C178.876 222.882 178.764 223.703 178.386 224.413C178.277 224.603 178.139 224.775 177.977 224.922C177.861 225.015 177.792 225.061 177.784 225.046C177.955 224.823 178.11 224.588 178.247 224.343C178.558 223.647 178.621 222.865 178.425 222.128C178.084 221.04 177.473 220.057 176.649 219.271C175.59 218.285 174.728 217.106 174.109 215.797C173.837 215.073 173.775 214.286 173.932 213.527C174.084 212.841 174.322 212.177 174.642 211.551C175.214 210.556 175.657 209.492 175.962 208.386C176.153 207.647 176.121 206.868 175.869 206.147C175.653 205.676 175.429 205.46 175.46 205.437Z" fill="#263238"/>
<path d="M172.928 205.476C172.928 205.476 172.997 205.476 173.106 205.622C173.258 205.78 173.385 205.959 173.484 206.155C173.81 206.898 173.892 207.725 173.715 208.517C173.444 209.658 173.018 210.757 172.449 211.783C172.152 212.383 171.931 213.019 171.793 213.674C171.655 214.363 171.711 215.077 171.955 215.735C172.561 216.994 173.387 218.134 174.395 219.101C175.245 219.938 175.858 220.985 176.17 222.135C176.359 222.932 176.246 223.771 175.854 224.49C175.748 224.68 175.609 224.85 175.445 224.992C175.329 225.092 175.267 225.131 175.259 225.123C175.252 225.115 175.483 224.899 175.715 224.413C176.026 223.716 176.088 222.934 175.892 222.197C175.552 221.114 174.944 220.134 174.125 219.348C173.062 218.363 172.198 217.184 171.577 215.874C171.307 215.146 171.248 214.357 171.407 213.597C171.554 212.91 171.791 212.246 172.11 211.621C172.686 210.631 173.13 209.569 173.43 208.463C173.626 207.722 173.594 206.939 173.337 206.217C173.098 205.723 172.866 205.499 172.928 205.476Z" fill="#263238"/>
<path d="M169.199 233.515C169.199 233.515 169.199 233.283 169.531 233.028C169.753 232.873 170.007 232.77 170.274 232.726C170.541 232.682 170.815 232.698 171.075 232.773C171.818 233.047 172.483 233.498 173.013 234.086C173.294 234.427 173.648 234.701 174.049 234.888C174.449 235.075 174.887 235.17 175.329 235.167C176.24 235.051 177.004 234.395 177.815 234.063C178.201 233.873 178.621 233.76 179.05 233.731C179.43 233.725 179.806 233.801 180.154 233.955C180.651 234.171 181.065 234.542 181.335 235.012C181.513 235.344 181.536 235.553 181.513 235.56C181.489 235.568 181.412 235.383 181.204 235.097C180.908 234.701 180.507 234.396 180.046 234.217C179.732 234.101 179.399 234.049 179.065 234.063C178.683 234.108 178.312 234.221 177.969 234.395C177.173 234.923 176.297 235.319 175.375 235.568C174.836 235.637 174.289 235.514 173.831 235.221C173.437 234.978 173.073 234.688 172.75 234.356C172.27 233.792 171.668 233.344 170.99 233.044C170.762 232.967 170.52 232.938 170.28 232.958C170.039 232.978 169.806 233.046 169.593 233.159C169.323 233.337 169.23 233.53 169.199 233.515Z" fill="#FAFAFA"/>
<path d="M168.852 231.453C168.852 231.453 168.852 231.206 169.199 230.952C169.437 230.783 169.71 230.671 169.998 230.623C170.285 230.575 170.58 230.592 170.859 230.674C171.644 230.971 172.348 231.45 172.913 232.071C173.554 232.673 174.372 233.36 175.36 233.229C176.348 233.098 177.143 232.457 178 232.048C178.411 231.848 178.857 231.73 179.313 231.7C179.8 231.689 180.282 231.809 180.708 232.046C181.134 232.284 181.489 232.631 181.737 233.051C181.93 233.399 181.953 233.63 181.93 233.63C181.907 233.63 181.822 233.437 181.605 233.136C181.289 232.714 180.861 232.388 180.37 232.194C180.037 232.071 179.683 232.016 179.328 232.032C178.919 232.079 178.521 232.199 178.155 232.387C177.383 232.75 176.557 233.461 175.399 233.63C174.843 233.691 174.283 233.563 173.808 233.268C173.389 233.006 173.003 232.695 172.658 232.341C172.144 231.744 171.503 231.269 170.782 230.952C170.539 230.868 170.281 230.835 170.024 230.856C169.768 230.878 169.518 230.952 169.292 231.075C168.976 231.268 168.883 231.476 168.852 231.453Z" fill="#FAFAFA"/>
<path d="M96.6929 312.313L109.994 331.088L256.018 331.018L255.933 314.443L182.092 307.418L120.741 298.293L96.6929 312.313Z" fill="#263238"/>
<path d="M120.169 298.841L130.537 284.528L159.75 248.46C161.762 246.29 164.253 244.62 167.025 243.581C169.796 242.542 172.772 242.165 175.715 242.477C179.296 242.856 182.697 244.243 185.522 246.477C188.347 248.711 190.479 251.701 191.672 255.1L210.972 313.957L185.419 309.943L172.434 273.535L151.96 302.099L120.169 298.841Z" fill="#263238"/>
<path d="M210.949 310.159H210.756H210.092L207.537 309.973L198.149 309.201L167.176 306.6L150.123 305.118C147.506 304.871 145.012 304.685 142.681 304.43C140.521 304.196 138.376 303.835 136.258 303.35C134.491 302.983 132.782 302.377 131.178 301.551C129.979 300.903 128.897 300.061 127.974 299.057C127.389 298.424 126.902 297.705 126.531 296.927C126.395 296.662 126.284 296.385 126.199 296.101C126.672 297.146 127.311 298.107 128.09 298.949C129.013 299.924 130.093 300.736 131.286 301.35C132.879 302.148 134.572 302.727 136.32 303.072C138.431 303.538 140.568 303.881 142.72 304.099C145.036 304.338 147.537 304.515 150.162 304.747L167.207 306.198L198.172 308.916L207.552 309.788L210.1 310.043L210.764 310.12L210.949 310.159Z" fill="#455A64"/>
<path d="M174.472 260.365C174.314 261.005 174.115 261.634 173.878 262.248C172.905 265.262 172.433 268.415 172.48 271.582C172.526 272.24 172.526 272.9 172.48 273.558C172.292 272.921 172.193 272.261 172.187 271.597C172.08 269.997 172.147 268.389 172.388 266.803C172.628 265.22 173.037 263.667 173.607 262.171C173.81 261.532 174.101 260.924 174.472 260.365Z" fill="#455A64"/>
<path d="M168.836 265.275C169.226 266.77 169.695 268.244 170.241 269.69C170.908 271.082 171.648 272.437 172.457 273.751C170.253 271.458 168.965 268.437 168.836 265.259V265.275Z" fill="#455A64"/>
<path d="M252.22 319.407C251.64 321.3 251.229 323.24 250.993 325.205C250.896 327.182 250.974 329.163 251.224 331.126C250.983 330.585 250.826 330.009 250.761 329.42C250.529 328.015 250.472 326.586 250.591 325.166C250.713 323.748 251.011 322.35 251.479 321.005C251.635 320.435 251.886 319.895 252.22 319.407Z" fill="#455A64"/>
<path d="M102.529 235.051C102.529 235.051 102.529 235.12 102.406 235.221C102.277 235.377 102.132 235.52 101.973 235.645C101.387 236.109 100.712 236.448 99.9892 236.641C98.1673 237.205 95.5348 237.066 92.7401 236.641C90.3539 236.248 88.022 235.577 85.7921 234.642C84.9352 234.287 84.2481 233.947 83.8004 233.708C83.5528 233.595 83.3217 233.45 83.1133 233.275C83.1133 233.221 84.1709 233.731 85.9002 234.379C88.1494 235.226 90.4767 235.849 92.8482 236.24C95.6197 236.672 98.1982 236.842 99.966 236.379C100.905 236.123 101.779 235.67 102.529 235.051Z" fill="#263238"/>
<path d="M513.01 269.783C516.244 268.116 520.058 267.899 523.648 268.494C525.585 268.81 527.593 269.389 528.913 270.81C530.233 272.23 530.457 274.809 528.967 276.059C527.991 276.716 526.817 277.011 525.647 276.893C522.837 276.893 519.71 276.368 517.464 278.059C516.182 279.024 515.325 280.63 513.797 281.108C513.029 281.286 512.224 281.209 511.504 280.889C510.784 280.568 510.188 280.022 509.806 279.333C509.075 277.924 508.914 276.287 509.358 274.763C509.542 273.707 509.967 272.709 510.6 271.845C511.234 270.981 512.058 270.275 513.01 269.783Z" fill="#FF4000"/>
<path d="M505.59 255.463C507.567 258.296 511.419 257.354 513.202 255.632C514.986 253.911 515.742 251.402 516.429 249.016C517.973 243.566 519.579 237.853 518.406 232.303C518.128 230.62 517.39 229.046 516.275 227.755C515.708 227.113 514.98 226.631 514.167 226.36C513.353 226.089 512.483 226.038 511.643 226.211C509.705 226.729 508.501 228.628 507.629 230.434C505.062 235.771 503.717 241.612 503.691 247.534C503.691 250.29 504.008 253.177 505.56 255.447" fill="#FF4000"/>
<path d="M500.156 259.523C502.302 256.976 502.711 253.255 501.754 250.059C500.666 246.884 498.728 244.069 496.149 241.922C493.22 239.315 489.811 237.303 486.113 236C484.682 235.417 483.141 235.153 481.597 235.228C480.824 235.277 480.076 235.514 479.415 235.918C478.755 236.321 478.202 236.879 477.806 237.544C476.756 239.559 477.806 242.007 478.864 243.998C480.795 247.511 483 250.867 485.457 254.034C487.433 256.582 489.695 259.099 492.714 260.21C495.732 261.322 498.851 261.229 500.434 259.137" fill="#FF4000"/>
<path d="M505.459 298.116C505.557 297.695 505.616 297.266 505.637 296.834C505.73 295.892 505.838 294.719 505.977 293.321C506.146 291.596 506.403 289.879 506.749 288.18C507.21 286.111 507.835 284.082 508.617 282.112C509.384 280.147 510.424 278.299 511.705 276.623C512.752 275.26 514.089 274.147 515.619 273.365C516.659 272.85 517.774 272.503 518.923 272.338C519.355 272.317 519.784 272.255 520.205 272.153C519.771 272.103 519.333 272.103 518.9 272.153C517.708 272.244 516.542 272.548 515.457 273.049C513.844 273.81 512.43 274.936 511.327 276.337C509.985 278.034 508.902 279.92 508.115 281.934C507.317 283.935 506.694 286.002 506.255 288.11C505.924 289.832 505.697 291.572 505.575 293.321C505.459 294.811 505.421 296.016 505.398 296.849C505.372 297.272 505.393 297.697 505.459 298.116Z" fill="#263238"/>
<path d="M505.699 295.421C505.722 295.221 505.722 295.019 505.699 294.819V293.121C505.699 291.638 505.699 289.5 505.776 286.852C505.907 281.564 506.363 275.874 507.243 267.853C508.069 260.311 509.188 251.533 510.331 245.82C510.586 244.523 510.84 243.358 511.103 242.331C511.365 241.304 511.527 240.424 511.713 239.706C511.898 238.988 512.006 238.486 512.114 238.054C512.171 237.86 512.204 237.661 512.215 237.459C512.129 237.641 512.059 237.829 512.006 238.023C511.875 238.448 511.713 238.988 511.512 239.652C511.311 240.316 511.072 241.242 510.809 242.261C510.547 243.28 510.261 244.446 509.983 245.743C508.524 252.494 507.426 259.318 506.695 266.186C505.815 274.222 505.421 281.548 505.382 286.844C505.382 289.5 505.382 291.638 505.475 293.121C505.521 293.815 505.552 294.379 505.583 294.827C505.597 295.029 505.636 295.229 505.699 295.421Z" fill="#263238"/>
<path d="M505.737 281.301C505.776 280.708 505.776 280.112 505.737 279.518C505.668 278.376 505.513 276.723 505.189 274.693C504.809 272.324 504.293 269.978 503.645 267.668C502.881 264.822 501.897 262.04 500.704 259.346C498.662 254.381 495.738 249.827 492.073 245.905C491.439 245.233 490.76 244.604 490.042 244.022C489.734 243.759 489.456 243.489 489.178 243.288L488.406 242.74C487.919 242.378 487.403 242.058 486.862 241.783C488.593 243.138 490.235 244.603 491.779 246.168C495.328 250.12 498.174 254.65 500.194 259.562C501.365 262.238 502.353 264.99 503.151 267.799C503.823 270.086 504.38 272.405 504.818 274.747C505.189 276.747 505.405 278.383 505.529 279.518C505.55 280.117 505.62 280.714 505.737 281.301Z" fill="#263238"/>
<path d="M492.088 306.206L493.501 325.583H518.398L519.819 306.206H492.088Z" fill="#263238"/>
<path d="M522.783 298.563H489.68V306.206H522.783V298.563Z" fill="#263238"/>
<path d="M489.68 324.842V326.957H491.239H522.243V324.842H489.68Z" fill="#455A64"/>
<path d="M492.76 330.686L491.239 326.957H521.054L519.278 330.686H492.76Z" fill="#455A64"/>
<path d="M519.356 312.536C519.322 312.599 519.283 312.658 519.24 312.714L518.869 313.208L517.418 315.069L517.348 315.146L517.287 315.061L513.728 310.136H513.928L510.423 315.1L510.308 315.254L510.192 315.107L506.031 310.159H506.27L506.039 310.444L502.317 315.076L502.194 315.231L502.078 315.069L498.566 310.105H498.774L494.451 315.03L494.374 315.123L494.312 315.022L492.961 312.745L492.613 312.143C492.573 312.073 492.537 312.001 492.505 311.927C492.505 311.927 492.567 311.988 492.652 312.12L493.038 312.699L494.459 314.937H494.32C495.431 313.64 496.875 311.95 498.573 309.95L498.681 309.827L498.782 309.966L502.325 314.907H502.086L505.799 310.236L506.023 309.95L506.147 309.804L506.262 309.943L510.416 314.907H510.184L513.728 309.966L513.828 309.819L513.928 309.966L517.418 314.945H517.294L518.8 313.131L519.201 312.668C519.247 312.617 519.298 312.573 519.356 312.536Z" fill="#E0E0E0"/>
<path d="M520.166 306.075C520.166 306.16 513.921 306.229 506.27 306.229C498.62 306.229 492.374 306.16 492.374 306.075C492.374 305.99 498.612 305.92 506.27 305.92C513.928 305.92 520.166 305.99 520.166 306.075Z" fill="#455A64"/>
<path d="M521.416 327.174C521.416 327.259 514.638 327.328 506.277 327.328C497.917 327.328 491.131 327.259 491.131 327.174C491.131 327.089 497.909 327.019 506.277 327.019C514.646 327.019 521.416 327.089 521.416 327.174Z" fill="#263238"/>
</svg>
